SplineFontDB: 3.2
FontName: Estedad-Bold
FullName: Estedad Bold
FamilyName: Estedad
Weight: Bold
Copyright: Copyright (c) 2017-2019 by Amin Abedi (@aminabedi68)-www.opentypeshop.com and Copyright (c) 2019 by Amin Abedi (@aminabedi68)-www.fontamin.com,\nwith Reserved Font Name Estedad.\n\nThis Font Software is licensed under the SIL Open Font License, Version 1.1.
Version: 3.0
ItalicAngle: 0
UnderlinePosition: -650
UnderlineWidth: 137
Ascent: 1638
Descent: 410
InvalidEm: 0
sfntRevision: 0x00030000
UFOAscent: 1638
UFODescent: -410
LayerCount: 2
Layer: 0 0 "Back" 1
Layer: 1 0 "public.default" 0
StyleMap: 0x0000
FSType: 0
OS2Version: 0
OS2_WeightWidthSlopeOnly: 0
OS2_UseTypoMetrics: 0
CreationTime: 1571651525
ModificationTime: 1571651650
PfmFamily: 16
TTFWeight: 700
TTFWidth: 5
LineGap: 0
VLineGap: 0
OS2TypoAscent: 2200
OS2TypoAOffset: 0
OS2TypoDescent: -1200
OS2TypoDOffset: 0
OS2TypoLinegap: 0
OS2WinAscent: 2200
OS2WinAOffset: 0
OS2WinDescent: 1200
OS2WinDOffset: 0
HheadAscent: 2200
HheadAOffset: 0
HheadDescent: -1200
HheadDOffset: 0
OS2CapHeight: 1400
OS2XHeight: 1012
OS2Vendor: 'AA68'
Lookup: 1 1 0 "finaTerminalFormsinArabiclookup2" { "finaTerminalFormsinArabiclookup2 subtable"  } ['fina' ('arab' <'dflt' 'FAR ' 'KUR ' > ) ]
Lookup: 1 1 0 "mediMedialFormsinArabiclookup3" { "mediMedialFormsinArabiclookup3 subtable"  } ['medi' ('arab' <'dflt' 'FAR ' 'KUR ' > ) ]
Lookup: 1 1 0 "initInitialFormsinArabiclookup4" { "initInitialFormsinArabiclookup4 subtable"  } ['init' ('arab' <'dflt' 'FAR ' 'KUR ' > ) ]
Lookup: 4 1 1 "rligRequiredLigaturesinArabiclookup5" { "rligRequiredLigaturesinArabiclookup5 subtable"  } ['rlig' ('arab' <'dflt' 'FAR ' 'KUR ' > ) ]
Lookup: 4 0 1 "ccmpGlyphCompositionDecompositionlookup6" { "ccmpGlyphCompositionDecompositionlookup6 subtable"  } ['rlig' ('arab' <'dflt' 'FAR ' 'KUR ' > ) ]
Lookup: 2 0 0 "Multiplesubstitution0" { "Multiplesubstitution0 subtable"  } []
Lookup: 2 0 0 "Multiplesubstitution1" { "Multiplesubstitution1 subtable"  } []

StartChar: A
Encoding: 65 65 0
Width: 1412
VWidth: 0
GlyphClass: 2
Flags: HW
LayerCount: 2
Fore
SplineSet
498 608 m 257
 915 608 l 257
 707 1170 l 257
 498 608 l 257
274 0 m 257
 8 0 l 257
 595 1514 l 257
 818 1514 l 257
 1405 0 l 257
 1139 0 l 257
 990 411 l 257
 423 411 l 257
 274 0 l 257
EndSplineSet
EndChar

StartChar: AE
Encoding: 198 198 1
Width: 1919
VWidth: 0
GlyphClass: 2
Flags: HW
LayerCount: 2
Fore
SplineSet
848 1127 m 257
 832 1127 l 257
 562 568 l 257
 848 568 l 257
 848 1127 l 257
748 1514 m 257
 1844 1514 l 257
 1844 1301 l 257
 1098 1301 l 257
 1098 840 l 257
 1844 840 l 257
 1844 643 l 257
 1098 643 l 257
 1098 212 l 257
 1844 212 l 257
 1844 0 l 257
 848 0 l 257
 848 370 l 257
 466 370 l 257
 291 0 l 257
 18 0 l 257
 748 1514 l 257
EndSplineSet
EndChar

StartChar: B
Encoding: 66 66 8
Width: 1363
VWidth: 0
GlyphClass: 2
Flags: HW
LayerCount: 2
Fore
SplineSet
145 1514 m 257
 735 1514 l 258
 993 1514 1198 1318 1198 1072 c 256
 1198 956 1150 854 1074 780 c 257
 1189 702 1261 574 1261 430 c 256
 1261 183 1052 0 798 0 c 258
 145 0 l 257
 145 1514 l 257
395 656 m 257
 395 212 l 257
 798 212 l 258
 916 212 1011 290 1011 430 c 256
 1011 573 912 656 798 656 c 258
 395 656 l 257
735 854 m 258
 853 854 948 932 948 1072 c 256
 948 1213 850 1301 735 1301 c 258
 395 1301 l 257
 395 854 l 257
 735 854 l 258
EndSplineSet
EndChar

StartChar: C
Encoding: 67 67 9
Width: 1373
VWidth: 0
GlyphClass: 2
Flags: HW
LayerCount: 2
Fore
SplineSet
1110 331 m 257
 1294 176 l 257
 1176 59 1013 -20 802 -20 c 256
 320 -20 96 366 96 760 c 256
 96 1154 320 1534 802 1534 c 256
 1013 1534 1173 1456 1294 1338 c 257
 1110 1184 l 257
 1034 1257 946 1321 802 1321 c 256
 500 1321 346 1090 346 760 c 256
 346 430 500 192 802 192 c 256
 943 192 1030 254 1110 331 c 257
EndSplineSet
EndChar

StartChar: D
Encoding: 68 68 11
Width: 1413
VWidth: 0
GlyphClass: 2
Flags: HW
LayerCount: 2
Fore
SplineSet
610 1514 m 258
 1096 1514 1317 1154 1317 754 c 256
 1317 354 1096 0 610 0 c 258
 145 0 l 257
 145 1514 l 257
 610 1514 l 258
610 1301 m 258
 395 1301 l 257
 395 212 l 257
 610 212 l 258
 919 212 1067 403 1067 754 c 256
 1067 1104 919 1301 610 1301 c 258
EndSplineSet
EndChar

StartChar: E
Encoding: 69 69 12
Width: 1136
VWidth: 0
GlyphClass: 2
Flags: HW
LayerCount: 2
Fore
SplineSet
1088 212 m 257
 1088 0 l 257
 145 0 l 257
 145 1514 l 257
 1088 1514 l 257
 1088 1301 l 257
 395 1301 l 257
 395 853 l 257
 1088 853 l 257
 1088 655 l 257
 395 655 l 257
 395 212 l 257
 1088 212 l 257
EndSplineSet
EndChar

StartChar: F
Encoding: 70 70 18
Width: 1133
VWidth: 0
GlyphClass: 2
Flags: HW
LayerCount: 2
Fore
SplineSet
395 0 m 257
 145 0 l 257
 145 1514 l 257
 1088 1514 l 257
 1088 1301 l 257
 395 1301 l 257
 395 853 l 257
 972 853 l 257
 972 655 l 257
 395 655 l 257
 395 0 l 257
EndSplineSet
EndChar

StartChar: G
Encoding: 71 71 19
Width: 1520
VWidth: 0
GlyphClass: 2
Flags: HW
LayerCount: 2
Fore
SplineSet
756 621 m 257
 753 818 l 257
 1395 821 l 257
 1395 504 l 258
 1395 240 1247 -20 821 -20 c 256
 339 -20 115 366 115 760 c 256
 115 1154 339 1534 821 1534 c 256
 1029 1534 1210 1466 1340 1338 c 257
 1156 1184 l 257
 1089 1253 971 1306 821 1306 c 256
 519 1306 365 1090 365 760 c 256
 365 430 519 207 821 207 c 256
 1107 207 1145 320 1145 504 c 258
 1145 622 l 257
 756 621 l 257
EndSplineSet
EndChar

StartChar: GAFbar
Encoding: 1114112 -1 20
Width: 999
VWidth: 0
GlyphClass: 2
Flags: HW
LayerCount: 2
Fore
SplineSet
816 1960 m 257
 842 1832 l 257
 588 1780 328 1677 111 1538 c 257
 40 1648 l 257
 273 1797 546 1904 816 1960 c 257
EndSplineSet
EndChar

StartChar: H
Encoding: 72 72 21
Width: 1409
VWidth: 0
GlyphClass: 2
Flags: HW
LayerCount: 2
Fore
SplineSet
1014 1514 m 257
 1264 1514 l 257
 1264 0 l 257
 1014 0 l 257
 1014 677 l 257
 395 677 l 257
 395 0 l 257
 145 0 l 257
 145 1514 l 257
 395 1514 l 257
 395 875 l 257
 1014 875 l 257
 1014 1514 l 257
EndSplineSet
EndChar

StartChar: I
Encoding: 73 73 24
Width: 605
VWidth: 0
GlyphClass: 2
Flags: HW
LayerCount: 2
Fore
SplineSet
428 0 m 257
 178 0 l 257
 178 1514 l 257
 428 1514 l 257
 428 0 l 257
EndSplineSet
EndChar

StartChar: J
Encoding: 74 74 29
Width: 940
VWidth: 0
GlyphClass: 2
Flags: HW
LayerCount: 2
Fore
SplineSet
50 56 m 257
 184 248 l 257
 220 217 265 192 336 192 c 256
 465 192 545 238 545 428 c 258
 545 1514 l 257
 795 1514 l 257
 795 428 l 258
 795 122 579 -20 336 -20 c 256
 232 -20 139 3 50 56 c 257
EndSplineSet
EndChar

StartChar: K
Encoding: 75 75 30
Width: 1339
VWidth: 0
GlyphClass: 2
Flags: HW
LayerCount: 2
Fore
SplineSet
996 1514 m 257
 1326 1514 l 257
 653 781 l 257
 1318 0 l 257
 999 0 l 257
 487 604 l 257
 395 507 l 257
 395 0 l 257
 145 0 l 257
 145 1514 l 257
 395 1514 l 257
 395 856 l 257
 996 1514 l 257
EndSplineSet
EndChar

StartChar: L
Encoding: 76 76 31
Width: 1131
VWidth: 0
GlyphClass: 2
Flags: HW
LayerCount: 2
Fore
SplineSet
1088 212 m 257
 1088 0 l 257
 145 0 l 257
 145 1514 l 257
 395 1514 l 257
 395 212 l 257
 1088 212 l 257
EndSplineSet
EndChar

StartChar: M
Encoding: 77 77 32
Width: 1855
VWidth: 0
GlyphClass: 2
Flags: HW
LayerCount: 2
Fore
SplineSet
395 0 m 257
 145 0 l 257
 145 1514 l 257
 401 1514 l 257
 906 291 l 257
 1457 1514 l 257
 1710 1514 l 257
 1710 0 l 257
 1460 0 l 257
 1460 1014 l 257
 1014 0 l 257
 787 0 l 257
 395 976 l 257
 395 0 l 257
EndSplineSet
EndChar

StartChar: N
Encoding: 78 78 33
Width: 1456
VWidth: 0
GlyphClass: 2
Flags: HW
LayerCount: 2
Fore
SplineSet
1061 1514 m 257
 1311 1514 l 257
 1311 0 l 257
 1069 0 l 257
 395 1095 l 257
 395 0 l 257
 145 0 l 257
 145 1514 l 257
 387 1514 l 257
 1061 419 l 257
 1061 1514 l 257
EndSplineSet
EndChar

StartChar: O
Encoding: 79 79 35
Width: 1602
VWidth: 0
GlyphClass: 2
Flags: HW
LayerCount: 2
Fore
SplineSet
801 1534 m 256
 1283 1534 1507 1148 1507 754 c 256
 1507 360 1283 -20 801 -20 c 256
 319 -20 95 360 95 754 c 256
 95 1148 319 1534 801 1534 c 256
801 1321 m 256
 499 1321 345 1084 345 754 c 256
 345 424 499 192 801 192 c 256
 1103 192 1257 424 1257 754 c 256
 1257 1084 1103 1321 801 1321 c 256
EndSplineSet
EndChar

StartChar: OE
Encoding: 338 338 36
Width: 1722
VWidth: 0
GlyphClass: 2
Flags: HW
LayerCount: 2
Fore
SplineSet
666 238 m 257
 666 1276 l 257
 434 1237 312 1044 312 754 c 256
 312 464 435 277 666 238 c 257
1610 1514 m 257
 1610 1301 l 257
 916 1301 l 257
 916 853 l 257
 1610 853 l 257
 1610 655 l 257
 916 655 l 257
 916 212 l 257
 1610 212 l 257
 1610 0 l 257
 768 0 l 258
 286 0 62 360 62 754 c 256
 62 1148 286 1514 768 1514 c 258
 1610 1514 l 257
EndSplineSet
EndChar

StartChar: P
Encoding: 80 80 43
Width: 1286
VWidth: 0
GlyphClass: 2
Flags: HW
LayerCount: 2
Fore
SplineSet
395 0 m 257
 145 0 l 257
 145 1514 l 257
 735 1514 l 258
 993 1514 1198 1324 1198 1078 c 256
 1198 831 990 646 735 646 c 258
 395 646 l 257
 395 0 l 257
395 1301 m 257
 395 859 l 257
 735 859 l 258
 853 859 948 938 948 1078 c 256
 948 1219 850 1301 735 1301 c 258
 395 1301 l 257
EndSplineSet
EndChar

StartChar: R
Encoding: 82 82 45
Width: 1343
VWidth: 0
GlyphClass: 2
Flags: HW
LayerCount: 2
Fore
SplineSet
145 1514 m 257
 735 1514 l 258
 993 1514 1198 1324 1198 1078 c 256
 1198 948 1137 833 1044 758 c 257
 1138 680 1198 564 1198 435 c 258
 1198 0 l 257
 948 0 l 257
 948 450 l 258
 948 578 849 661 735 661 c 258
 395 661 l 257
 395 0 l 257
 145 0 l 257
 145 1514 l 257
395 859 m 257
 735 859 l 258
 853 859 948 938 948 1078 c 256
 948 1219 850 1301 735 1301 c 258
 395 1301 l 257
 395 859 l 257
EndSplineSet
EndChar

StartChar: S
Encoding: 83 83 46
Width: 1261
VWidth: 0
GlyphClass: 2
Flags: HW
LayerCount: 2
Fore
SplineSet
82 467 m 257
 332 467 l 257
 332 301 446 192 644 192 c 256
 814 192 928 276 928 418 c 256
 928 527 830 607 604 666 c 256
 420 714 112 822 112 1112 c 256
 112 1384 362 1534 618 1534 c 256
 912 1534 1148 1354 1148 1047 c 257
 898 1047 l 257
 898 1211 803 1321 618 1321 c 256
 459 1321 362 1240 362 1105 c 256
 362 1000 456 910 676 853 c 256
 866 804 1178 702 1178 402 c 256
 1178 109 888 -20 644 -20 c 256
 361 -20 82 139 82 467 c 257
EndSplineSet
EndChar

StartChar: T
Encoding: 84 84 47
Width: 1260
VWidth: 0
GlyphClass: 2
Flags: HW
LayerCount: 2
Fore
SplineSet
755 0 m 257
 505 0 l 257
 505 1301 l 257
 42 1301 l 257
 42 1514 l 257
 1218 1514 l 257
 1218 1301 l 257
 755 1301 l 257
 755 0 l 257
EndSplineSet
EndChar

StartChar: Thorn
Encoding: 222 222 54
Width: 1209
VWidth: 0
GlyphClass: 2
Flags: HW
LayerCount: 2
Fore
SplineSet
402 517 m 257
 614 517 l 258
 778 517 882 599 882 755 c 256
 882 911 778 992 614 992 c 258
 402 992 l 257
 402 517 l 257
402 0 m 257
 152 0 l 257
 152 1514 l 257
 402 1514 l 257
 402 1189 l 257
 614 1189 l 258
 873 1189 1132 1056 1132 755 c 256
 1132 454 873 320 614 320 c 258
 402 320 l 257
 402 0 l 257
EndSplineSet
EndChar

StartChar: U
Encoding: 85 85 55
Width: 1403
VWidth: 0
GlyphClass: 2
Flags: HW
LayerCount: 2
Fore
SplineSet
1015 1514 m 257
 1265 1514 l 257
 1265 506 l 258
 1265 194 1008 -20 702 -20 c 256
 396 -20 139 194 139 506 c 258
 139 1514 l 257
 389 1514 l 257
 389 492 l 258
 389 302 528 192 702 192 c 256
 876 192 1015 302 1015 492 c 258
 1015 1514 l 257
EndSplineSet
EndChar

StartChar: V
Encoding: 86 86 60
Width: 1412
VWidth: 0
GlyphClass: 2
Flags: HW
LayerCount: 2
Fore
SplineSet
1139 1514 m 257
 1405 1514 l 257
 815 0 l 257
 596 0 l 257
 8 1514 l 257
 274 1514 l 257
 706 350 l 257
 1139 1514 l 257
EndSplineSet
EndChar

StartChar: W
Encoding: 87 87 61
Width: 2048
VWidth: 0
GlyphClass: 2
Flags: HW
LayerCount: 2
Fore
SplineSet
1751 1514 m 257
 2010 1514 l 257
 1574 0 l 257
 1326 0 l 257
 1024 1159 l 257
 721 0 l 257
 473 0 l 257
 38 1514 l 257
 297 1514 l 257
 597 355 l 257
 900 1514 l 257
 1148 1514 l 257
 1450 355 l 257
 1751 1514 l 257
EndSplineSet
EndChar

StartChar: X
Encoding: 88 88 62
Width: 1328
VWidth: 0
GlyphClass: 2
Flags: HW
LayerCount: 2
Fore
SplineSet
1308 0 m 257
 1016 0 l 257
 664 582 l 257
 312 0 l 257
 20 0 l 257
 518 753 l 257
 20 1514 l 257
 312 1514 l 257
 664 924 l 257
 1016 1514 l 257
 1308 1514 l 257
 810 753 l 257
 1308 0 l 257
EndSplineSet
EndChar

StartChar: Y
Encoding: 89 89 63
Width: 1297
VWidth: 0
GlyphClass: 2
Flags: HW
LayerCount: 2
Fore
SplineSet
1002 1514 m 257
 1290 1514 l 257
 774 688 l 257
 774 0 l 257
 524 0 l 257
 524 688 l 257
 8 1514 l 257
 297 1514 l 257
 649 898 l 257
 1002 1514 l 257
EndSplineSet
EndChar

StartChar: Z
Encoding: 90 90 65
Width: 1310
VWidth: 0
GlyphClass: 2
Flags: HW
LayerCount: 2
Fore
SplineSet
68 1301 m 257
 68 1514 l 257
 1242 1514 l 257
 1242 1328 l 257
 365 212 l 257
 1242 212 l 257
 1242 0 l 257
 68 0 l 257
 68 185 l 257
 945 1301 l 257
 68 1301 l 257
EndSplineSet
EndChar

StartChar: a
Encoding: 97 97 66
Width: 1074
VWidth: 0
GlyphClass: 2
Flags: HW
LayerCount: 2
Fore
SplineSet
997 0 m 257
 754 0 l 257
 724 105 702 210 702 376 c 258
 702 791 l 258
 702 882 645 942 518 942 c 256
 388 942 336 882 336 791 c 257
 86 791 l 257
 86 1035 297 1159 518 1159 c 256
 714 1159 952 1045 952 798 c 258
 952 376 l 258
 952 220 971 86 997 0 c 257
EndSplineSet
Refer: 317 57355 N 1 0 0 1 -9 0 2
EndChar

StartChar: acute
Encoding: 180 180 69
Width: 517
VWidth: 0
GlyphClass: 2
Flags: HW
LayerCount: 2
Fore
SplineSet
317 1565 m 257
 405 1510 l 257
 200 1181 l 257
 112 1236 l 257
 317 1565 l 257
EndSplineSet
EndChar

StartChar: ae
Encoding: 230 230 71
Width: 1809
VWidth: 0
GlyphClass: 2
Flags: HW
LayerCount: 2
Fore
SplineSet
963 491 m 257
 984 285 1108 189 1280 189 c 256
 1375 189 1491 218 1603 272 c 257
 1698 96 l 257
 1538 16 1382 -19 1246 -19 c 256
 1044 -19 890 62 798 208 c 257
 716 66 560 -20 406 -20 c 256
 204 -20 65 117 65 320 c 256
 65 618 371 689 620 689 c 256
 646 689 673 687 700 685 c 257
 700 766 l 258
 700 857 650 946 516 946 c 256
 384 946 334 882 334 791 c 257
 84 791 l 257
 84 1035 292 1159 516 1159 c 256
 646 1159 775 1099 858 1000 c 257
 940 1090 1059 1159 1218 1159 c 256
 1582 1159 1744 852 1744 574 c 258
 1744 491 l 257
 963 491 l 257
962 658 m 257
 1480 658 l 257
 1450 834 1364 946 1218 946 c 256
 1073 946 991 835 962 658 c 257
700 516 m 257
 672 519 643 520 618 520 c 256
 439 520 306 455 306 338 c 256
 306 242 367 198 451 198 c 256
 577 198 700 294 700 430 c 258
 700 516 l 257
EndSplineSet
EndChar

StartChar: ampersand
Encoding: 38 38 73
Width: 1288
VWidth: 0
GlyphClass: 2
Flags: HW
LayerCount: 2
Fore
SplineSet
540 940 m 257
 672 1012 739 1079 739 1176 c 256
 739 1238 696 1310 594 1310 c 256
 490 1310 440 1236 440 1146 c 256
 440 1099 452 1058 486 1013 c 258
 540 940 l 257
764 231 m 257
 470 629 l 257
 394 575 350 522 350 424 c 256
 350 297 426 196 595 196 c 256
 657 196 717 209 764 231 c 257
1080 202 m 257
 1185 63 l 257
 972 -58 l 257
 892 49 l 257
 806 6 705 -16 595 -16 c 256
 316 -16 100 165 100 424 c 256
 100 612 210 735 329 818 c 257
 281 882 l 257
 218 959 190 1060 190 1146 c 256
 190 1335 335 1523 594 1523 c 256
 833 1523 989 1357 989 1176 c 256
 989 959 820 830 681 752 c 257
 913 427 l 257
 931 471 939 525 939 586 c 257
 1188 586 l 257
 1188 431 1161 310 1080 202 c 257
EndSplineSet
EndChar

StartChar: asciicircum
Encoding: 94 94 75
Width: 704
VWidth: 0
GlyphClass: 2
Flags: HW
LayerCount: 2
Fore
SplineSet
630 1217 m 257
 547 1152 l 257
 352 1400 l 257
 157 1152 l 257
 74 1217 l 257
 306 1511 l 257
 398 1511 l 257
 630 1217 l 257
EndSplineSet
EndChar

StartChar: asciitilde
Encoding: 126 126 76
Width: 868
VWidth: 0
GlyphClass: 2
Flags: HW
LayerCount: 2
Fore
SplineSet
63 1209 m 257
 118 1338 204 1399 288 1399 c 256
 354 1399 406 1378 466 1332 c 256
 517 1294 539 1284 581 1284 c 256
 608 1284 665 1315 710 1418 c 257
 806 1376 l 257
 752 1250 668 1179 581 1179 c 256
 514 1179 460 1204 402 1248 c 256
 350 1287 330 1294 288 1294 c 256
 256 1294 203 1269 159 1167 c 257
 63 1209 l 257
EndSplineSet
EndChar

StartChar: asterisk
Encoding: 42 42 77
Width: 1133
VWidth: 0
GlyphClass: 2
Flags: HW
LayerCount: 2
Fore
SplineSet
151 1148 m 257
 206 1316 l 257
 478 1227 l 257
 478 1514 l 257
 654 1514 l 257
 654 1226 l 257
 927 1316 l 257
 982 1148 l 257
 710 1059 l 257
 879 826 l 257
 736 723 l 257
 566 956 l 257
 398 723 l 257
 254 826 l 257
 423 1059 l 257
 151 1148 l 257
EndSplineSet
EndChar

StartChar: at
Encoding: 64 64 78
Width: 2311
VWidth: 0
GlyphClass: 2
Flags: HW
LayerCount: 2
Fore
SplineSet
1171 1161 m 256
 1407 1161 1518 1075 1631 984 c 257
 1576 350 l 258
 1575 342 1575 340 1575 328 c 256
 1575 232 1662 168 1738 168 c 256
 1863 168 1994 318 1994 578 c 256
 1994 1057 1606 1429 1156 1429 c 256
 706 1429 318 1057 318 578 c 256
 318 99 704 -271 1156 -271 c 256
 1249 -271 1339 -256 1421 -228 c 257
 1475 -364 l 257
 1377 -398 1269 -416 1156 -416 c 256
 591 -416 150 38 150 578 c 256
 150 1118 590 1573 1156 1573 c 256
 1722 1573 2161 1118 2161 578 c 256
 2161 315 2024 -22 1679 -22 c 256
 1556 -22 1462 30 1405 106 c 257
 1318 22 1206 -22 1088 -22 c 256
 842 -22 602 144 602 500 c 256
 602 905 853 1161 1171 1161 c 256
1171 948 m 256
 1025 948 852 825 852 500 c 256
 852 250 976 192 1088 192 c 256
 1181 192 1318 268 1341 529 c 258
 1372 898 l 257
 1326 927 1277 948 1171 948 c 256
EndSplineSet
EndChar

StartChar: b
Encoding: 98 98 80
Width: 1258
VWidth: 0
GlyphClass: 2
Flags: HW
LayerCount: 2
Fore
SplineSet
382 0 m 257
 132 0 l 257
 132 1514 l 257
 382 1514 l 257
 382 0 l 257
EndSplineSet
Refer: 321 57359 N 1 0 0 1 38 0 2
EndChar

StartChar: backslash
Encoding: 92 92 81
Width: 1019
VWidth: 0
GlyphClass: 2
Flags: HW
LayerCount: 2
Fore
SplineSet
997 71 m 257
 774 -42 l 257
 22 1436 l 257
 244 1548 l 257
 997 71 l 257
EndSplineSet
EndChar

StartChar: bar
Encoding: 124 124 82
Width: 440
VWidth: 0
GlyphClass: 2
Flags: HW
LayerCount: 2
Fore
SplineSet
95 1514 m 257
 345 1514 l 257
 345 -418 l 257
 95 -418 l 257
 95 1514 l 257
EndSplineSet
EndChar

StartChar: braceleft
Encoding: 123 123 83
Width: 806
VWidth: 0
GlyphClass: 2
Flags: HW
LayerCount: 2
Fore
SplineSet
434 758 m 257
 496 696 535 613 535 518 c 258
 535 276 l 258
 535 224 549 212 600 212 c 258
 718 212 l 257
 718 0 l 257
 547 0 l 258
 401 0 285 101 285 238 c 258
 285 518 l 258
 285 587 243 628 187 644 c 258
 100 669 l 257
 100 846 l 257
 187 871 l 258
 243 887 285 929 285 998 c 258
 285 1276 l 258
 285 1413 401 1514 547 1514 c 258
 718 1514 l 257
 718 1303 l 257
 600 1303 l 258
 549 1303 535 1291 535 1239 c 258
 535 998 l 258
 535 903 496 819 434 758 c 257
EndSplineSet
EndChar

StartChar: braceright
Encoding: 125 125 84
Width: 806
VWidth: 0
GlyphClass: 2
Flags: HW
LayerCount: 2
Fore
SplineSet
385 758 m 257
 323 819 284 903 284 998 c 258
 284 1239 l 258
 284 1291 270 1303 219 1303 c 258
 100 1303 l 257
 100 1514 l 257
 272 1514 l 258
 418 1514 534 1413 534 1276 c 258
 534 998 l 258
 534 929 575 887 631 871 c 258
 718 846 l 257
 718 669 l 257
 631 644 l 258
 575 628 534 587 534 518 c 258
 534 238 l 258
 534 101 418 0 272 0 c 258
 100 0 l 257
 100 212 l 257
 219 212 l 258
 270 212 284 224 284 276 c 258
 284 518 l 258
 284 613 323 696 385 758 c 257
EndSplineSet
EndChar

StartChar: bracketleft
Encoding: 91 91 85
Width: 642
VWidth: 0
GlyphClass: 2
Flags: HW
LayerCount: 2
Fore
SplineSet
580 212 m 257
 580 0 l 257
 95 0 l 257
 95 1514 l 257
 580 1514 l 257
 580 1301 l 257
 345 1301 l 257
 345 212 l 257
 580 212 l 257
EndSplineSet
EndChar

StartChar: bracketright
Encoding: 93 93 86
Width: 642
VWidth: 0
GlyphClass: 2
Flags: HW
LayerCount: 2
Fore
SplineSet
62 1301 m 257
 62 1514 l 257
 547 1514 l 257
 547 0 l 257
 62 0 l 257
 62 212 l 257
 297 212 l 257
 297 1301 l 257
 62 1301 l 257
EndSplineSet
EndChar

StartChar: brokenbar
Encoding: 166 166 87
Width: 440
VWidth: 0
GlyphClass: 2
Flags: HW
LayerCount: 2
Fore
SplineSet
345 885 m 257
 95 885 l 257
 95 1514 l 257
 345 1514 l 257
 345 885 l 257
345 0 m 257
 95 0 l 257
 95 604 l 257
 345 604 l 257
 345 0 l 257
EndSplineSet
EndChar

StartChar: c
Encoding: 99 99 88
Width: 1116
VWidth: 0
GlyphClass: 2
Flags: HW
LayerCount: 2
Fore
SplineSet
821 362 m 257
 1048 267 l 257
 974 108 820 -20 586 -20 c 256
 222 -20 68 293 68 569 c 256
 68 845 220 1159 586 1159 c 256
 820 1159 968 1034 1048 874 c 257
 821 778 l 257
 776 870 716 946 586 946 c 256
 414 946 318 790 318 569 c 256
 318 348 414 192 586 192 c 256
 715 192 774 268 821 362 c 257
EndSplineSet
EndChar

StartChar: cedilla
Encoding: 184 184 90
Width: 723
VWidth: 0
GlyphClass: 2
Flags: HW
LayerCount: 2
Fore
SplineSet
163 -292 m 257
 206 -335 264 -355 344 -355 c 256
 436 -355 504 -310 504 -270 c 256
 504 -184 406 -63 311 10 c 257
 375 104 l 257
 505 11 606 -121 606 -270 c 256
 606 -420 454 -468 344 -468 c 256
 241 -468 162 -436 96 -365 c 257
 163 -292 l 257
EndSplineSet
EndChar

StartChar: cent
Encoding: 162 162 91
Width: 1116
VWidth: 0
GlyphClass: 2
Flags: HW
LayerCount: 2
Fore
SplineSet
712 994 m 257
 462 994 l 257
 462 1514 l 257
 712 1514 l 257
 712 994 l 257
712 -359 m 257
 462 -359 l 257
 462 156 l 257
 712 156 l 257
 712 -359 l 257
EndSplineSet
Refer: 88 99 N 1 0 0 1 0 0 2
EndChar

StartChar: comma
Encoding: 44 44 93
Width: 489
VWidth: 0
GlyphClass: 2
Flags: HW
LayerCount: 2
Fore
SplineSet
216 -205 m 257
 153 -156 l 257
 183 -122 269 -19 269 94 c 257
 178 94 129 136 129 220 c 256
 129 290 181 337 243 337 c 256
 323 337 373 284 373 178 c 256
 373 0 284 -122 216 -205 c 257
EndSplineSet
EndChar

StartChar: copyright
Encoding: 169 169 94
Width: 1830
VWidth: 0
GlyphClass: 2
Flags: HW
LayerCount: 2
Fore
SplineSet
355 773 m 256
 355 449 615 203 915 203 c 256
 1215 203 1475 449 1475 773 c 256
 1475 1096 1215 1343 915 1343 c 256
 615 1343 355 1096 355 773 c 256
105 773 m 256
 105 1206 459 1570 915 1570 c 256
 1371 1570 1725 1206 1725 773 c 256
 1725 341 1372 -25 915 -25 c 256
 458 -25 105 341 105 773 c 256
1252 1036 m 257
 1110 947 l 257
 1061 1007 986 1039 915 1039 c 256
 779 1039 662 926 662 774 c 256
 662 622 779 510 915 510 c 256
 986 510 1061 542 1110 602 c 257
 1252 514 l 257
 1171 416 1046 358 915 358 c 256
 659 358 488 560 488 774 c 256
 488 988 659 1192 915 1192 c 256
 1046 1192 1171 1134 1252 1036 c 257
EndSplineSet
EndChar

StartChar: currency
Encoding: 164 164 95
Width: 1389
VWidth: 0
GlyphClass: 2
Flags: HW
LayerCount: 2
Fore
SplineSet
538 956 m 257
 337 822 l 257
 58 1142 l 257
 259 1276 l 257
 538 956 l 257
337 326 m 257
 538 192 l 257
 259 -128 l 257
 58 6 l 257
 337 326 l 257
1052 822 m 257
 850 956 l 257
 1130 1276 l 257
 1332 1142 l 257
 1052 822 l 257
850 192 m 257
 1052 326 l 257
 1332 6 l 257
 1130 -128 l 257
 850 192 l 257
EndSplineSet
Refer: 147 111 N 1 0 0 1 114 0 2
EndChar

StartChar: d
Encoding: 100 100 96
Width: 1258
VWidth: 0
GlyphClass: 2
Flags: HW
LayerCount: 2
Fore
SplineSet
1126 0 m 257
 876 0 l 257
 876 1514 l 257
 1126 1514 l 257
 1126 0 l 257
EndSplineSet
Refer: 321 57359 N -1 0 0 -1 1220 1138 2
EndChar

StartChar: degree
Encoding: 176 176 97
Width: 646
VWidth: 0
GlyphClass: 2
Flags: HW
LayerCount: 2
Fore
SplineSet
462 1476 m 256
 462 1555 402 1615 323 1615 c 256
 244 1615 184 1555 184 1476 c 256
 184 1397 244 1336 323 1336 c 256
 402 1336 462 1397 462 1476 c 256
568 1476 m 256
 568 1340 459 1231 323 1231 c 256
 187 1231 78 1340 78 1476 c 256
 78 1612 187 1720 323 1720 c 256
 459 1720 568 1612 568 1476 c 256
EndSplineSet
EndChar

StartChar: dotlessi
Encoding: 305 305 104
Width: 475
VWidth: 0
GlyphClass: 2
Flags: HW
LayerCount: 2
Fore
SplineSet
112 1139 m 257
 362 1139 l 257
 362 0 l 257
 112 0 l 257
 112 1139 l 257
EndSplineSet
EndChar

StartChar: e
Encoding: 101 101 107
Width: 1173
VWidth: 0
GlyphClass: 2
Flags: HW
LayerCount: 2
Fore
SplineSet
329 485 m 257
 346 267 487 194 665 194 c 256
 771 194 891 219 997 259 c 257
 1064 96 l 257
 916 16 767 -20 632 -20 c 256
 311 -20 65 189 65 569 c 256
 65 845 218 1159 584 1159 c 256
 948 1159 1108 847 1108 569 c 258
 1108 485 l 257
 329 485 l 257
328 652 m 257
 844 652 l 257
 814 828 730 946 584 946 c 256
 439 946 357 829 328 652 c 257
EndSplineSet
EndChar

StartChar: eight
Encoding: 56 56 112
Width: 1207
VWidth: 0
GlyphClass: 2
Flags: HW
LayerCount: 2
Fore
SplineSet
793 1127 m 256
 793 1215 746 1310 604 1310 c 256
 462 1310 414 1215 414 1127 c 256
 414 986 455 926 603 926 c 256
 750 926 793 987 793 1127 c 256
350 419 m 256
 350 294 428 196 604 196 c 256
 780 196 857 293 857 419 c 256
 857 573 734 699 603 699 c 256
 466 699 350 577 350 419 c 256
895 813 m 257
 1013 731 1107 571 1107 419 c 256
 1107 169 900 -16 604 -16 c 256
 309 -16 100 168 100 419 c 256
 100 571 194 732 311 814 c 257
 227 880 164 1006 164 1127 c 256
 164 1310 306 1523 604 1523 c 256
 902 1523 1043 1309 1043 1127 c 256
 1043 1005 981 879 895 813 c 257
EndSplineSet
EndChar

StartChar: eth
Encoding: 240 240 114
Width: 1163
VWidth: 0
GlyphClass: 2
Flags: HW
LayerCount: 2
Fore
SplineSet
582 946 m 256
 410 946 312 790 312 569 c 256
 312 348 410 192 582 192 c 256
 754 192 850 348 850 569 c 256
 850 790 754 946 582 946 c 256
582 1159 m 256
 641 1159 694 1151 741 1135 c 257
 699 1196 651 1255 599 1306 c 257
 462 1195 l 257
 352 1331 l 257
 461 1419 l 257
 407 1454 351 1479 294 1489 c 257
 325 1661 l 257
 425 1642 520 1599 606 1537 c 257
 737 1643 l 257
 847 1507 l 257
 740 1420 l 257
 977 1177 1100 887 1100 569 c 256
 1100 293 946 -20 582 -20 c 256
 218 -20 62 293 62 569 c 256
 62 845 216 1159 582 1159 c 256
EndSplineSet
EndChar

StartChar: exclam
Encoding: 33 33 115
Width: 610
VWidth: 0
GlyphClass: 2
Flags: HW
LayerCount: 2
Fore
SplineSet
430 452 m 257
 180 452 l 257
 180 1520 l 257
 430 1520 l 257
 430 452 l 257
EndSplineSet
Refer: 165 46 N 1 0 0 1 30 0 2
EndChar

StartChar: f
Encoding: 102 102 117
Width: 705
VWidth: 0
GlyphClass: 2
Flags: HW
LayerCount: 2
Fore
SplineSet
690 1566 m 257
 690 1395 l 257
 494 1395 l 258
 460 1395 435 1371 435 1333 c 258
 435 0 l 257
 185 0 l 257
 185 1333 l 258
 185 1485 311 1621 486 1621 c 257
 563 1621 633 1600 690 1566 c 257
EndSplineSet
Refer: 316 57354 N 1 0 0 1 -48 485 2
EndChar

StartChar: five
Encoding: 53 53 119
Width: 1240
VWidth: 0
GlyphClass: 2
Flags: HW
LayerCount: 2
Fore
SplineSet
118 434 m 257
 368 434 l 257
 368 288 423 196 590 196 c 256
 792 196 884 286 884 534 c 256
 884 757 784 886 590 886 c 256
 500 886 372 827 289 753 c 257
 131 832 l 257
 196 1508 l 257
 1122 1508 l 257
 1122 1295 l 257
 425 1295 l 257
 405 1053 l 257
 468 1074 529 1083 590 1083 c 256
 941 1083 1134 840 1134 534 c 256
 1134 198 934 -16 590 -16 c 256
 274 -16 118 182 118 434 c 257
EndSplineSet
EndChar

StartChar: four
Encoding: 52 52 120
Width: 1244
VWidth: 0
GlyphClass: 2
Flags: HW
LayerCount: 2
Fore
SplineSet
756 539 m 257
 756 1139 l 257
 342 539 l 257
 756 539 l 257
1182 539 m 257
 1182 341 l 257
 1006 341 l 257
 1006 -6 l 257
 756 -6 l 257
 756 341 l 257
 72 341 l 257
 72 506 l 257
 765 1508 l 257
 1006 1508 l 257
 1006 539 l 257
 1182 539 l 257
EndSplineSet
EndChar

StartChar: g
Encoding: 103 103 121
Width: 1265
VWidth: 0
GlyphClass: 2
Flags: HW
LayerCount: 2
Fore
SplineSet
883 1139 m 257
 1133 1139 l 257
 1133 120 l 258
 1133 -254 875 -430 587 -430 c 256
 417 -430 248 -372 106 -285 c 257
 200 -118 l 257
 301 -181 432 -218 552 -218 c 256
 730 -218 883 -135 883 73 c 258
 883 1139 l 257
EndSplineSet
Refer: 321 57359 N -1 0 0 -1 1228 1138 2
EndChar

StartChar: germandbls
Encoding: 223 223 122
Width: 1234
VWidth: 0
GlyphClass: 2
Flags: HW
LayerCount: 2
Fore
SplineSet
560 0 m 257
 560 227 l 257
 842 227 904 233 904 308 c 256
 904 357 873 391 801 441 c 256
 729 491 609 579 609 739 c 256
 609 848 656 911 699 968 c 256
 736 1017 770 1063 770 1133 c 256
 770 1242 712 1321 587 1321 c 256
 457 1321 405 1244 405 1106 c 258
 405 0 l 257
 155 0 l 257
 155 1106 l 258
 155 1319 290 1534 587 1534 c 256
 876 1534 1020 1322 1020 1106 c 256
 1020 990 968 895 907 844 c 256
 874 814 854 787 854 749 c 256
 854 702 893 665 955 621 c 256
 1035 563 1154 466 1154 300 c 256
 1154 47 1006 0 560 0 c 257
EndSplineSet
EndChar

StartChar: grave
Encoding: 96 96 123
Width: 524
VWidth: 0
GlyphClass: 2
Flags: HW
LayerCount: 2
Fore
SplineSet
409 1237 m 257
 321 1180 l 257
 115 1509 l 257
 203 1566 l 257
 409 1237 l 257
EndSplineSet
EndChar

StartChar: greater
Encoding: 62 62 124
Width: 775
VWidth: 0
GlyphClass: 2
Flags: HW
LayerCount: 2
Fore
SplineSet
216 179 m 257
 118 280 l 257
 514 656 l 257
 118 1030 l 257
 216 1132 l 257
 718 656 l 257
 216 179 l 257
EndSplineSet
EndChar

StartChar: h
Encoding: 104 104 127
Width: 1178
VWidth: 0
GlyphClass: 2
Flags: HW
LayerCount: 2
Fore
SplineSet
372 0 m 257
 122 0 l 257
 122 1514 l 257
 372 1514 l 257
 372 0 l 257
EndSplineSet
Refer: 319 57357 N 1 0 0 1 48 0 2
EndChar

StartChar: hyphen
Encoding: 45 45 128
Width: 993
VWidth: 0
GlyphClass: 2
Flags: HW
LayerCount: 2
Fore
SplineSet
910 657 m 257
 910 459 l 257
 82 459 l 257
 82 657 l 257
 910 657 l 257
EndSplineSet
EndChar

StartChar: k
Encoding: 107 107 135
Width: 1108
VWidth: 0
GlyphClass: 2
Flags: HW
LayerCount: 2
Fore
SplineSet
784 1139 m 257
 1108 1139 l 257
 598 568 l 257
 1070 0 l 257
 755 0 l 257
 436 388 l 257
 380 326 l 257
 380 0 l 257
 130 0 l 257
 130 1514 l 257
 380 1514 l 257
 380 684 l 257
 784 1139 l 257
EndSplineSet
EndChar

StartChar: l
Encoding: 108 108 136
Width: 535
VWidth: 0
GlyphClass: 2
Flags: HW
LayerCount: 2
Fore
SplineSet
392 0 m 257
 142 0 l 257
 142 1514 l 257
 392 1514 l 257
 392 0 l 257
EndSplineSet
EndChar

StartChar: less
Encoding: 60 60 137
Width: 775
VWidth: 0
GlyphClass: 2
Flags: HW
LayerCount: 2
Fore
SplineSet
552 1132 m 257
 650 1030 l 257
 254 656 l 257
 650 280 l 257
 552 179 l 257
 50 656 l 257
 552 1132 l 257
EndSplineSet
EndChar

StartChar: logicalnot
Encoding: 172 172 138
Width: 1073
VWidth: 0
GlyphClass: 2
Flags: HW
LayerCount: 2
Fore
SplineSet
62 444 m 257
 62 672 l 257
 978 672 l 257
 978 248 l 257
 728 248 l 257
 728 444 l 257
 62 444 l 257
EndSplineSet
EndChar

StartChar: m
Encoding: 109 109 139
Width: 1701
VWidth: 0
GlyphClass: 2
Flags: HW
LayerCount: 2
Fore
SplineSet
128 1139 m 257
 378 1139 l 257
 378 0 l 257
 128 0 l 257
 128 1139 l 257
EndSplineSet
Refer: 318 57356 N 1 0 0 1 -516 0 2
Refer: 318 57356 N 1 0 0 1 82 0 2
EndChar

StartChar: mu
Encoding: 181 181 141
Width: 1153
VWidth: 0
GlyphClass: 2
Flags: HW
LayerCount: 2
Fore
SplineSet
118 1139 m 257
 368 1139 l 257
 368 410 l 258
 368 302 399 223 526 223 c 256
 687 223 786 317 786 471 c 258
 786 1139 l 257
 1036 1139 l 257
 1036 0 l 257
 786 0 l 257
 786 92 l 257
 708 30 608 -6 496 -6 c 256
 444 -6 401 5 368 21 c 257
 368 -693 l 257
 118 -693 l 257
 118 1139 l 257
EndSplineSet
EndChar

StartChar: n
Encoding: 110 110 143
Width: 1178
VWidth: 0
GlyphClass: 2
Flags: HW
LayerCount: 2
Fore
SplineSet
372 0 m 257
 122 0 l 257
 122 1139 l 257
 372 1139 l 257
 372 0 l 257
EndSplineSet
Refer: 319 57357 N 1 0 0 1 48 0 2
EndChar

StartChar: nine
Encoding: 57 57 144
Width: 1252
VWidth: 0
GlyphClass: 2
Flags: HW
LayerCount: 2
Fore
SplineSet
888 814 m 257
 876 1124 806 1311 600 1311 c 256
 444 1311 342 1188 342 1012 c 256
 342 822 445 727 581 727 c 256
 685 727 787 755 888 814 c 257
868 590 m 257
 780 546 670 524 580 524 c 256
 295 524 92 689 92 1004 c 256
 92 1282 274 1523 600 1523 c 256
 1080 1523 1138 1061 1138 770 c 256
 1138 287 940 -16 570 -16 c 256
 377 -16 231 41 110 138 c 257
 219 292 l 257
 324 221 424 197 529 197 c 256
 721 197 864 309 868 590 c 257
EndSplineSet
EndChar

StartChar: numbersign
Encoding: 35 35 146
Width: 1728
VWidth: 0
GlyphClass: 2
Flags: HW
LayerCount: 2
Fore
SplineSet
480 -16 m 257
 238 41 l 257
 355 440 l 257
 105 440 l 257
 105 637 l 257
 424 637 l 257
 497 905 l 257
 197 905 l 257
 197 1103 l 257
 566 1103 l 257
 690 1523 l 257
 933 1466 l 257
 826 1103 l 257
 1114 1103 l 257
 1238 1523 l 257
 1481 1466 l 257
 1374 1103 l 257
 1623 1103 l 257
 1623 905 l 257
 1305 905 l 257
 1232 637 l 257
 1531 637 l 257
 1531 440 l 257
 1163 440 l 257
 1028 -16 l 257
 786 41 l 257
 903 440 l 257
 615 440 l 257
 480 -16 l 257
1045 905 m 257
 757 905 l 257
 684 637 l 257
 972 637 l 257
 1045 905 l 257
EndSplineSet
EndChar

StartChar: o
Encoding: 111 111 147
Width: 1180
VWidth: 0
GlyphClass: 2
Flags: HW
LayerCount: 2
Fore
SplineSet
590 946 m 256
 418 946 321 790 321 569 c 256
 321 348 418 192 590 192 c 256
 762 192 859 348 859 569 c 256
 859 790 762 946 590 946 c 256
590 1159 m 256
 956 1159 1109 845 1109 569 c 256
 1109 293 954 -20 590 -20 c 256
 226 -20 71 293 71 569 c 256
 71 845 224 1159 590 1159 c 256
EndSplineSet
EndChar

StartChar: one
Encoding: 49 49 153
Width: 957
VWidth: 0
GlyphClass: 2
Flags: HW
LayerCount: 2
Fore
SplineSet
204 1070 m 257
 200 1266 l 257
 390 1267 l 258
 468 1267 486 1280 496 1342 c 257
 495 1514 l 257
 745 1514 l 257
 745 -6 l 257
 495 -6 l 257
 495 1092 l 257
 447 1077 394 1070 332 1070 c 258
 204 1070 l 257
EndSplineSet
EndChar

StartChar: onehalf
Encoding: 189 189 154
Width: 2096
VWidth: 0
GlyphClass: 2
Flags: HW
LayerCount: 2
Fore
SplineSet
646 -18 m 257
 436 104 l 257
 1512 1530 l 257
 1723 1410 l 257
 646 -18 l 257
2031 -190 m 257
 2031 -403 l 257
 1194 -403 l 257
 1194 -221 l 257
 1706 277 l 258
 1760 328 1790 392 1790 466 c 256
 1790 569 1723 638 1612 638 c 256
 1506 638 1445 560 1445 424 c 257
 1195 424 l 257
 1195 692 1379 850 1612 850 c 256
 1820 850 2031 706 2031 447 c 256
 2031 292 1960 191 1884 119 c 258
 1574 -190 l 257
 2031 -190 l 257
112 1232 m 257
 112 1428 l 257
 244 1428 l 258
 320 1428 337 1440 346 1502 c 257
 346 1656 l 257
 596 1656 l 257
 596 522 l 257
 346 522 l 257
 346 1253 l 257
 297 1237 244 1232 182 1232 c 258
 112 1232 l 257
EndSplineSet
EndChar

StartChar: onequarter
Encoding: 188 188 155
Width: 1965
VWidth: 0
GlyphClass: 2
Flags: HW
LayerCount: 2
Fore
SplineSet
112 1232 m 257
 112 1428 l 257
 244 1428 l 258
 320 1428 337 1440 346 1502 c 257
 346 1656 l 257
 596 1656 l 257
 596 522 l 257
 346 522 l 257
 346 1253 l 257
 297 1237 244 1232 182 1232 c 258
 112 1232 l 257
1852 64 m 257
 1852 -134 l 257
 1744 -134 l 257
 1744 -366 l 257
 1494 -366 l 257
 1494 -134 l 257
 980 -134 l 257
 980 17 l 257
 1510 843 l 257
 1744 843 l 257
 1744 64 l 257
 1852 64 l 257
1494 64 m 257
 1494 438 l 257
 1256 64 l 257
 1494 64 l 257
650 -18 m 257
 439 104 l 257
 1514 1530 l 257
 1725 1410 l 257
 650 -18 l 257
EndSplineSet
EndChar

StartChar: ordfeminine
Encoding: 170 170 156
Width: 747
VWidth: 0
GlyphClass: 2
Flags: HW
LayerCount: 2
Fore
SplineSet
488 1298 m 257
 488 1355 l 258
 488 1418 436 1450 350 1450 c 256
 259 1450 216 1418 216 1347 c 257
 110 1347 l 257
 110 1500 238 1555 350 1555 c 256
 456 1555 592 1504 592 1355 c 258
 592 1100 l 258
 592 1012 616 992 636 978 c 257
 570 895 l 257
 548 913 528 934 514 966 c 257
 460 914 390 889 310 889 c 256
 188 889 98 969 98 1079 c 256
 98 1247 251 1303 411 1303 c 256
 438 1303 463 1301 488 1298 c 257
488 1193 m 257
 460 1197 439 1198 411 1198 c 256
 261 1198 202 1156 202 1079 c 256
 202 1033 232 994 310 994 c 256
 398 994 455 1030 488 1109 c 257
 488 1193 l 257
EndSplineSet
EndChar

StartChar: p
Encoding: 112 112 160
Width: 1255
VWidth: 0
GlyphClass: 2
Flags: HW
LayerCount: 2
Fore
SplineSet
130 1139 m 257
 380 1139 l 257
 380 -410 l 257
 130 -410 l 257
 130 1139 l 257
EndSplineSet
Refer: 321 57359 N 1 0 0 1 35 0 2
EndChar

StartChar: paragraph
Encoding: 182 182 161
Width: 1333
VWidth: 0
GlyphClass: 2
Flags: HW
LayerCount: 2
Fore
SplineSet
708 1301 m 257
 591 1301 l 258
 474 1301 350 1202 350 1005 c 256
 350 808 474 710 591 710 c 258
 708 710 l 257
 708 1301 l 257
1216 -418 m 257
 1026 -418 l 257
 1026 1301 l 257
 898 1301 l 257
 898 -418 l 257
 708 -418 l 257
 708 498 l 257
 591 498 l 258
 308 498 100 727 100 1005 c 256
 100 1283 307 1514 591 1514 c 258
 1216 1514 l 257
 1216 -418 l 257
EndSplineSet
EndChar

StartChar: parenleft
Encoding: 40 40 162
Width: 598
VWidth: 0
GlyphClass: 2
Flags: HW
LayerCount: 2
Fore
SplineSet
523 84 m 257
 313 -51 l 257
 166 179 75 435 75 754 c 256
 75 1073 166 1328 313 1558 c 257
 523 1423 l 257
 400 1231 325 1030 325 754 c 256
 325 478 400 276 523 84 c 257
EndSplineSet
EndChar

StartChar: parenright
Encoding: 41 41 163
Width: 598
VWidth: 0
GlyphClass: 2
Flags: HW
LayerCount: 2
Fore
SplineSet
75 1423 m 257
 285 1558 l 257
 432 1328 523 1072 523 753 c 256
 523 434 432 179 285 -51 c 257
 75 84 l 257
 198 276 273 477 273 753 c 256
 273 1029 198 1231 75 1423 c 257
EndSplineSet
EndChar

StartChar: period
Encoding: 46 46 165
Width: 550
VWidth: 0
GlyphClass: 2
Flags: HW
LayerCount: 2
Fore
SplineSet
138 135 m 256
 138 211 199 270 275 270 c 256
 351 270 412 211 412 135 c 256
 412 59 351 0 275 0 c 256
 199 0 138 59 138 135 c 256
EndSplineSet
EndChar

StartChar: plus
Encoding: 43 43 167
Width: 993
VWidth: 0
GlyphClass: 2
Flags: HW
LayerCount: 2
Fore
SplineSet
910 657 m 257
 910 459 l 257
 606 459 l 257
 606 144 l 257
 386 144 l 257
 386 459 l 257
 82 459 l 257
 82 657 l 257
 386 657 l 257
 386 971 l 257
 606 971 l 257
 606 657 l 257
 910 657 l 257
EndSplineSet
EndChar

StartChar: q
Encoding: 113 113 169
Width: 1255
VWidth: 0
GlyphClass: 2
Flags: HW
LayerCount: 2
Fore
SplineSet
876 1139 m 257
 1126 1139 l 257
 1126 -410 l 257
 876 -410 l 257
 876 1139 l 257
EndSplineSet
Refer: 321 57359 N -1 0 0 -1 1220 1138 2
EndChar

StartChar: question
Encoding: 63 63 170
Width: 1067
VWidth: 0
GlyphClass: 2
Flags: HW
LayerCount: 2
Fore
SplineSet
334 986 m 257
 87 956 l 257
 81 995 75 1045 75 1083 c 256
 75 1309 229 1519 528 1519 c 256
 826 1519 992 1287 992 1042 c 256
 992 869 902 797 814 732 c 256
 725 667 638 601 638 427 c 257
 388 427 l 257
 388 653 497 750 594 832 c 256
 674 898 741 959 741 1081 c 256
 741 1202 666 1306 528 1306 c 256
 386 1306 325 1221 325 1083 c 256
 325 1045 328 1018 334 986 c 257
EndSplineSet
Refer: 165 46 N -1 0 0 1 794 0 2
EndChar

StartChar: quoteleft
Encoding: 8216 8216 175
Width: 598
VWidth: 0
GlyphClass: 2
Flags: HW
LayerCount: 2
Fore
SplineSet
276 794 m 257
 200 900 129 1067 129 1238 c 256
 129 1368 191 1459 308 1459 c 256
 423 1459 469 1382 469 1288 c 256
 469 1111 243 1237 243 1131 c 256
 243 1041 292 910 342 842 c 257
 276 794 l 257
EndSplineSet
EndChar

StartChar: quoteright
Encoding: 8217 8217 176
Width: 598
VWidth: 0
GlyphClass: 2
Flags: HW
LayerCount: 2
Fore
SplineSet
322 794 m 257
 256 842 l 257
 306 910 355 1041 355 1131 c 256
 355 1237 129 1111 129 1288 c 256
 129 1382 175 1459 290 1459 c 256
 407 1459 469 1368 469 1238 c 256
 469 1067 398 900 322 794 c 257
EndSplineSet
EndChar

StartChar: quotesingle
Encoding: 39 39 177
Width: 400
VWidth: 0
GlyphClass: 2
Flags: HW
LayerCount: 2
Fore
SplineSet
122 1466 m 257
 278 1466 l 257
 278 936 l 257
 122 936 l 257
 122 1466 l 257
EndSplineSet
EndChar

StartChar: r
Encoding: 114 114 178
Width: 776
VWidth: 0
GlyphClass: 2
Flags: HW
LayerCount: 2
Fore
SplineSet
130 1139 m 257
 380 1139 l 257
 380 0 l 257
 130 0 l 257
 130 1139 l 257
EndSplineSet
Refer: 320 57358 N 1 0 0 1 55 -0 2
EndChar

StartChar: registered
Encoding: 174 174 179
Width: 1830
VWidth: 0
GlyphClass: 2
Flags: HW
LayerCount: 2
Fore
SplineSet
105 773 m 256
 105 1206 459 1570 915 1570 c 256
 1371 1570 1725 1206 1725 773 c 256
 1725 341 1372 -25 915 -25 c 256
 458 -25 105 341 105 773 c 256
355 773 m 256
 355 449 615 203 915 203 c 256
 1215 203 1475 449 1475 773 c 256
 1475 1096 1215 1343 915 1343 c 256
 615 1343 355 1096 355 773 c 256
788 756 m 257
 946 756 l 258
 1039 756 1110 810 1110 899 c 256
 1110 989 1039 1044 946 1044 c 258
 788 1044 l 257
 788 756 l 257
1255 434 m 257
 1113 346 l 257
 901 604 l 257
 788 604 l 257
 788 390 l 257
 612 390 l 257
 612 1196 l 257
 946 1196 l 258
 1131 1196 1284 1071 1284 899 c 256
 1284 775 1204 677 1092 633 c 257
 1255 434 l 257
EndSplineSet
EndChar

StartChar: s
Encoding: 115 115 180
Width: 1049
VWidth: 0
GlyphClass: 2
Flags: HW
LayerCount: 2
Fore
SplineSet
70 356 m 257
 320 356 l 257
 320 258 393 197 524 197 c 256
 655 197 729 260 729 346 c 256
 729 425 677 479 505 497 c 256
 371 511 85 559 85 796 c 256
 85 1056 334 1154 524 1154 c 256
 715 1154 962 1056 962 796 c 257
 712 796 l 257
 712 882 648 941 524 941 c 256
 404 941 335 886 335 811 c 256
 335 748 374 698 539 678 c 256
 683 661 979 610 979 356 c 256
 979 88 722 -15 524 -15 c 256
 326 -15 70 88 70 356 c 257
EndSplineSet
EndChar

StartChar: section
Encoding: 167 167 181
Width: 1102
VWidth: 0
GlyphClass: 2
Flags: HW
LayerCount: 2
Fore
SplineSet
102 327 m 257
 352 327 l 257
 352 231 422 187 551 187 c 256
 681 187 752 232 752 304 c 257
 752 358 719 381 532 406 c 256
 384 426 100 468 100 733 c 256
 100 841 146 926 214 984 c 257
 148 1028 100 1093 100 1187 c 256
 100 1452 354 1554 551 1554 c 256
 748 1554 1001 1452 1001 1187 c 257
 751 1187 l 257
 751 1282 681 1326 551 1326 c 256
 421 1326 350 1282 350 1209 c 257
 350 1153 384 1133 571 1105 c 256
 722 1083 1002 1035 1002 769 c 256
 1002 663 958 582 893 526 c 257
 956 483 1002 419 1002 327 c 256
 1002 62 748 -41 551 -41 c 256
 352 -41 102 63 102 327 c 257
542 879 m 257
 422 877 350 829 350 733 c 256
 350 676 382 658 560 633 c 257
 686 635 752 677 752 769 c 256
 752 834 717 852 542 879 c 257
EndSplineSet
EndChar

StartChar: seven
Encoding: 55 55 183
Width: 1157
VWidth: 0
GlyphClass: 2
Flags: HW
LayerCount: 2
Fore
SplineSet
65 1295 m 257
 65 1508 l 257
 994 1508 l 257
 1055 1341 l 257
 438 -26 l 257
 204 54 l 257
 772 1295 l 257
 65 1295 l 257
EndSplineSet
EndChar

StartChar: simpledot
Encoding: 1114127 -1 184
Width: 2581
VWidth: 0
GlyphClass: 2
Flags: HW
LayerCount: 2
Fore
SplineSet
1033 180 m 257
 1187 334 l 257
 1341 180 l 257
 1187 26 l 257
 1033 180 l 257
EndSplineSet
EndChar

StartChar: six
Encoding: 54 54 185
Width: 1230
VWidth: 0
GlyphClass: 2
Flags: HW
LayerCount: 2
Fore
SplineSet
664 780 m 256
 560 780 458 752 357 693 c 257
 369 383 440 196 646 196 c 256
 802 196 902 320 902 496 c 256
 902 686 800 780 664 780 c 256
665 983 m 256
 950 983 1152 818 1152 503 c 256
 1152 225 972 -16 646 -16 c 256
 166 -16 108 446 108 737 c 256
 108 1215 305 1523 676 1523 c 256
 869 1523 1014 1466 1135 1369 c 257
 1026 1216 l 257
 921 1287 821 1310 716 1310 c 256
 525 1310 380 1194 376 917 c 257
 464 961 575 983 665 983 c 256
EndSplineSet
EndChar

StartChar: slash
Encoding: 47 47 186
Width: 1050
VWidth: 0
GlyphClass: 2
Flags: HW
LayerCount: 2
Fore
SplineSet
752 1545 m 257
 979 1440 l 257
 298 -38 l 257
 71 66 l 257
 752 1545 l 257
EndSplineSet
EndChar

StartChar: sterling
Encoding: 163 163 188
Width: 1299
VWidth: 0
GlyphClass: 2
Flags: HW
LayerCount: 2
Fore
SplineSet
616 1306 m 256
 563 1306 504 1260 504 1182 c 258
 504 316 l 258
 504 279 498 242 484 212 c 257
 1194 212 l 257
 1194 0 l 257
 105 0 l 257
 105 212 l 257
 201 212 254 230 254 316 c 258
 254 1167 l 258
 254 1352 404 1519 616 1519 c 256
 827 1519 952 1380 980 1193 c 257
 734 1158 l 257
 726 1238 689 1306 616 1306 c 256
EndSplineSet
Refer: 316 57354 N 1 0 0 1 42 54 2
EndChar

StartChar: t
Encoding: 116 116 189
Width: 723
VWidth: 0
GlyphClass: 2
Flags: HW
LayerCount: 2
Fore
SplineSet
683 220 m 257
 683 47 l 257
 628 13 560 -8 486 -8 c 257
 311 -8 184 129 184 281 c 258
 184 1436 l 257
 434 1436 l 257
 434 281 l 258
 434 243 459 220 493 220 c 258
 683 220 l 257
EndSplineSet
Refer: 316 57354 N 1 0 0 1 -55 485 2
EndChar

StartChar: three
Encoding: 51 51 191
Width: 1221
VWidth: 0
GlyphClass: 2
Flags: HW
LayerCount: 2
Fore
SplineSet
70 478 m 257
 320 478 l 257
 320 291 418 196 593 196 c 256
 749 196 869 270 869 429 c 256
 869 609 752 700 584 700 c 258
 474 700 l 257
 474 897 l 257
 584 897 l 258
 752 897 830 995 830 1101 c 256
 830 1238 732 1310 606 1310 c 256
 450 1310 379 1232 379 1072 c 257
 129 1072 l 257
 129 1387 362 1523 606 1523 c 256
 830 1523 1080 1385 1080 1101 c 256
 1080 986 1028 871 942 803 c 257
 1050 725 1119 587 1119 429 c 256
 1119 105 821 -16 593 -16 c 256
 325 -16 70 138 70 478 c 257
EndSplineSet
EndChar

StartChar: threequarters
Encoding: 190 190 192
Width: 2140
VWidth: 0
GlyphClass: 2
Flags: HW
LayerCount: 2
Fore
SplineSet
2028 64 m 257
 2028 -134 l 257
 1919 -134 l 257
 1919 -366 l 257
 1669 -366 l 257
 1669 -134 l 257
 1155 -134 l 257
 1155 17 l 257
 1685 843 l 257
 1919 843 l 257
 1919 64 l 257
 2028 64 l 257
1669 64 m 257
 1669 438 l 257
 1431 64 l 257
 1669 64 l 257
426 972 m 258
 318 972 l 257
 318 1170 l 257
 426 1170 l 258
 561 1170 610 1213 610 1332 c 256
 610 1402 538 1486 443 1486 c 256
 345 1486 275 1432 275 1286 c 257
 25 1286 l 257
 25 1559 219 1698 443 1698 c 256
 665 1698 860 1540 860 1332 c 256
 860 1226 822 1135 752 1071 c 257
 822 1007 860 917 860 811 c 256
 860 603 665 445 443 445 c 256
 219 445 25 583 25 856 c 257
 275 856 l 257
 275 711 344 658 443 658 c 256
 539 658 610 741 610 811 c 256
 610 929 562 972 426 972 c 258
824 -18 m 257
 614 104 l 257
 1690 1530 l 257
 1901 1410 l 257
 824 -18 l 257
EndSplineSet
EndChar

StartChar: two
Encoding: 50 50 193
Width: 1212
VWidth: 0
GlyphClass: 2
Flags: HW
LayerCount: 2
Fore
SplineSet
1120 0 m 257
 80 0 l 257
 80 166 l 258
 80 487 373 624 642 714 c 256
 826 776 864 898 864 1035 c 256
 864 1223 743 1312 598 1312 c 256
 454 1312 334 1201 334 985 c 257
 84 985 l 257
 84 1310 309 1524 598 1524 c 256
 876 1524 1114 1334 1114 1035 c 256
 1114 859 1046 619 740 518 c 256
 501 439 341 356 341 222 c 258
 341 212 l 257
 1120 212 l 257
 1120 0 l 257
EndSplineSet
EndChar

StartChar: u
Encoding: 117 117 194
Width: 1178
VWidth: 0
GlyphClass: 2
Flags: HW
LayerCount: 2
Fore
SplineSet
806 1139 m 257
 1056 1139 l 257
 1056 0 l 257
 806 0 l 257
 806 1139 l 257
EndSplineSet
Refer: 319 57357 N -1 0 0 -1 1130 1140 2
EndChar

StartChar: underscore
Encoding: 95 95 199
Width: 666
VWidth: 0
GlyphClass: 2
Flags: HW
LayerCount: 2
Fore
SplineSet
704 248 m 257
 704 -2 l 257
 -38 -2 l 257
 -38 248 l 257
 704 248 l 257
EndSplineSet
EndChar

StartChar: uni00B2
Encoding: 178 178 202
Width: 658
VWidth: 0
GlyphClass: 2
Flags: HW
LayerCount: 2
Fore
SplineSet
98 914 m 257
 98 1016 l 257
 376 1264 l 258
 404 1292 416 1305 416 1351 c 256
 416 1420 369 1450 309 1450 c 256
 245 1450 202 1417 202 1343 c 257
 98 1343 l 257
 98 1486 204 1555 309 1555 c 256
 409 1555 520 1489 520 1351 c 256
 520 1275 485 1221 449 1189 c 258
 254 1019 l 257
 516 1019 l 257
 516 914 l 257
 98 914 l 257
EndSplineSet
EndChar

StartChar: uni00B3
Encoding: 179 179 203
Width: 606
VWidth: 0
GlyphClass: 2
Flags: HW
LayerCount: 2
Fore
SplineSet
202 1361 m 257
 98 1361 l 257
 98 1476 192 1555 303 1555 c 256
 410 1555 508 1479 508 1369 c 256
 508 1315 483 1267 445 1235 c 257
 483 1203 508 1155 508 1101 c 256
 508 991 410 914 303 914 c 256
 192 914 98 993 98 1108 c 257
 202 1108 l 257
 202 1062 237 1019 303 1019 c 256
 364 1019 404 1061 404 1101 c 256
 404 1141 364 1182 303 1182 c 258
 234 1182 l 257
 234 1287 l 257
 303 1287 l 258
 364 1287 404 1329 404 1369 c 256
 404 1409 364 1450 303 1450 c 256
 237 1450 202 1407 202 1361 c 257
EndSplineSet
EndChar

StartChar: uni00B9
Encoding: 185 185 204
Width: 457
VWidth: 0
GlyphClass: 2
Flags: HW
LayerCount: 2
Fore
SplineSet
82 1308 m 257
 82 1413 l 257
 226 1413 l 257
 228 1510 l 257
 332 1510 l 257
 332 869 l 257
 228 869 l 257
 228 1308 l 257
 82 1308 l 257
EndSplineSet
EndChar

StartChar: uni0237
Encoding: 567 567 205
Width: 475
VWidth: 0
GlyphClass: 2
Flags: HW
LayerCount: 2
Fore
SplineSet
112 -136 m 258
 112 1139 l 257
 362 1139 l 257
 362 -136 l 258
 362 -288 236 -425 61 -425 c 257
 -7 -425 -68 -404 -116 -370 c 257
 -116 -198 l 257
 54 -198 l 258
 88 -198 112 -174 112 -136 c 258
EndSplineSet
EndChar

StartChar: uni060C
Encoding: 1548 1548 206
Width: 550
VWidth: 0
GlyphClass: 2
Flags: HW
LayerCount: 2
Fore
SplineSet
272 585 m 257
 344 535 l 257
 296 475 237 350 237 265 c 257
 327 265 417 228 417 136 c 256
 417 74 382 1 281 1 c 256
 183 1 133 70 133 171 c 256
 133 352 198 490 272 585 c 257
EndSplineSet
EndChar

StartChar: uni0615
Encoding: 1557 1557 207
Width: 0
VWidth: 0
GlyphClass: 4
Flags: H
AnchorPoint: "Anchor1" 0 1234 mark 0
AnchorPoint: "Anchor1" 0 1573 basemark 0
AnchorPoint: "Anchor5" 0 1234 mark 0
AnchorPoint: "Anchor4" 0 1234 mark 0
AnchorPoint: "Anchor-5" 0 1265 mark 0
AnchorPoint: "Anchor-4" 0 1265 mark 0
AnchorPoint: "Anchor-1" 0 1265 mark 0
AnchorPoint: "Anchor-1" 0 1573 basechar 0
LayerCount: 2
Fore
SplineSet
281 1718 m 256
 281 1531 54 1526 -154 1524 c 258
 -281 1524 l 257
 -281 1628 l 257
 -176 1628 l 257
 -176 2046 l 257
 -71 2046 l 257
 -71 1779 l 257
 -11 1841 54 1874 120 1874 c 256
 206 1874 281 1814 281 1718 c 256
-54 1631 m 257
 130 1639 176 1668 176 1718 c 256
 176 1753 158 1770 120 1770 c 256
 78 1770 7 1733 -54 1631 c 257
EndSplineSet
EndChar

StartChar: uni061F
Encoding: 1567 1567 209
Width: 1067
VWidth: 0
GlyphClass: 2
Flags: HW
LayerCount: 2
Fore
SplineSet
679 422 m 257
 429 422 l 257
 429 596 343 661 253 727 c 256
 165 792 75 864 75 1037 c 256
 75 1282 241 1514 539 1514 c 256
 838 1514 992 1304 992 1078 c 256
 992 1040 986 989 980 950 c 257
 732 980 l 257
 738 1012 742 1040 742 1078 c 256
 742 1216 681 1301 539 1301 c 256
 401 1301 326 1197 326 1076 c 256
 326 954 392 892 472 826 c 256
 569 744 679 648 679 422 c 257
EndSplineSet
Refer: 165 46 N -1 0 0 1 790 0 2
EndChar

StartChar: uni0660
Encoding: 1632 1632 261
Width: 845
VWidth: 0
GlyphClass: 2
Flags: HW
LayerCount: 2
Fore
SplineSet
422 671 m 256
 325 671 250 596 250 499 c 256
 250 402 326 325 422 325 c 256
 518 325 595 402 595 499 c 256
 595 595 519 671 422 671 c 256
422 846 m 256
 614 846 770 692 770 499 c 256
 770 307 616 150 422 150 c 256
 228 150 75 307 75 499 c 256
 75 691 230 846 422 846 c 256
EndSplineSet
PairPos2: "kernHorizontalKerninginArabiclookup3 subtable" uni0661 dx=50 dy=0 dh=50 dv=0 dx=0 dy=0 dh=0 dv=0
PairPos2: "kernHorizontalKerninginArabiclookup3 subtable" uni0667 dx=-100 dy=0 dh=-100 dv=0 dx=0 dy=0 dh=0 dv=0
PairPos2: "kernHorizontalKerninginArabiclookup3 subtable" uni0666 dx=-25 dy=0 dh=-25 dv=0 dx=0 dy=0 dh=0 dv=0
PairPos2: "kernHorizontalKerninginArabiclookup3 subtable" uni0662 dx=-125 dy=0 dh=-125 dv=0 dx=0 dy=0 dh=0 dv=0
EndChar

StartChar: uni0661
Encoding: 1633 1633 262
Width: 618
VWidth: 0
GlyphClass: 2
Flags: HW
LayerCount: 2
Fore
SplineSet
543 -2 m 257
 293 -2 l 257
 293 498 219 833 64 1270 c 257
 300 1354 l 257
 463 898 543 525 543 -2 c 257
EndSplineSet
PairPos2: "kernHorizontalKerninginArabiclookup3 subtable" uni0665 dx=-50 dy=0 dh=-50 dv=0 dx=0 dy=0 dh=0 dv=0
PairPos2: "kernHorizontalKerninginArabiclookup3 subtable" uni0660 dx=-50 dy=0 dh=-50 dv=0 dx=0 dy=0 dh=0 dv=0
EndChar

StartChar: uni0662
Encoding: 1634 1634 263
Width: 1046
VWidth: 0
GlyphClass: 2
Flags: HW
LayerCount: 2
Fore
SplineSet
562 898 m 256
 705 898 721 1058 721 1354 c 257
 971 1354 l 257
 971 1096 969 648 582 648 c 256
 549 648 521 652 490 665 c 257
 527 453 543 243 543 0 c 257
 293 0 l 257
 293 512 187 876 64 1280 c 257
 304 1354 l 257
 392 1057 439 898 562 898 c 256
EndSplineSet
EndChar

StartChar: uni0663
Encoding: 1635 1635 264
Width: 1383
VWidth: 0
GlyphClass: 2
Flags: HW
LayerCount: 2
Fore
SplineSet
863 1305 m 257
 857 1220 854 1168 854 1090 c 256
 854 961 865 903 951 903 c 256
 1037 903 1058 980 1058 1108 c 256
 1058 1175 1047 1246 1033 1316 c 257
 1277 1367 l 257
 1294 1282 1308 1207 1308 1109 c 256
 1308 867 1199 653 944 653 c 256
 835 653 778 698 724 762 c 257
 680 695 627 653 543 653 c 256
 523 653 507 656 490 662 c 257
 526 450 543 243 543 0 c 257
 293 0 l 257
 293 513 188 880 64 1280 c 257
 304 1353 l 257
 397 1002 430 903 516 903 c 256
 618 903 634 1048 645 1312 c 257
 863 1305 l 257
EndSplineSet
PairPos2: "kernHorizontalKerninginArabiclookup3 subtable" uni0668 dx=-50 dy=0 dh=-50 dv=0 dx=0 dy=0 dh=0 dv=0
EndChar

StartChar: uni0664
Encoding: 1636 1636 265
Width: 997
VWidth: 0
GlyphClass: 2
Flags: HW
LayerCount: 2
Fore
SplineSet
242 681 m 257
 179 734 136 858 136 966 c 256
 136 1290 435 1354 720 1354 c 257
 720 1104 l 257
 488 1104 386 1052 386 956 c 256
 386 861 494 812 727 812 c 257
 727 562 l 257
 500 562 325 516 325 373 c 256
 325 275 417 248 533 248 c 258
 853 248 l 257
 853 -2 l 257
 521 -2 l 258
 232 -2 75 124 75 326 c 256
 75 474 142 606 242 681 c 257
EndSplineSet
PairPos2: "kernHorizontalKerninginArabiclookup3 subtable" uni0666 dx=50 dy=0 dh=50 dv=0 dx=0 dy=0 dh=0 dv=0
EndChar

StartChar: uni0665
Encoding: 1637 1637 266
Width: 1196
VWidth: 0
GlyphClass: 2
Flags: HW
LayerCount: 2
Fore
SplineSet
498 1354 m 257
 764 1134 1121 810 1121 407 c 256
 1121 93 885 -32 601 -32 c 256
 328 -32 75 90 75 404 c 256
 75 657 205 868 423 1088 c 257
 395 1114 368 1138 340 1162 c 257
 498 1354 l 257
601 913 m 257
 409 719 325 568 325 404 c 256
 325 262 398 218 601 218 c 256
 809 218 871 254 871 407 c 256
 871 565 756 740 601 913 c 257
EndSplineSet
PairPos2: "kernHorizontalKerninginArabiclookup3 subtable" uni0661 dx=50 dy=0 dh=50 dv=0 dx=0 dy=0 dh=0 dv=0
PairPos2: "kernHorizontalKerninginArabiclookup3 subtable" uni0667 dx=-100 dy=0 dh=-100 dv=0 dx=0 dy=0 dh=0 dv=0
EndChar

StartChar: uni0666
Encoding: 1638 1638 267
Width: 1168
VWidth: 0
GlyphClass: 2
Flags: HW
LayerCount: 2
Fore
SplineSet
118 1108 m 257
 172 1354 l 257
 304 1324 462 1302 618 1302 c 256
 708 1302 794 1311 866 1323 c 257
 986 1216 l 257
 982 1118 979 1024 979 927 c 256
 979 545 1016 382 1103 32 c 257
 860 -28 l 257
 771 332 729 529 729 927 c 256
 729 970 729 1012 731 1056 c 257
 694 1053 657 1052 618 1052 c 256
 449 1052 270 1076 118 1108 c 257
EndSplineSet
PairPos2: "kernHorizontalKerninginArabiclookup3 subtable" uni0664 dx=-50 dy=0 dh=-50 dv=0 dx=0 dy=0 dh=0 dv=0
PairPos2: "kernHorizontalKerninginArabiclookup3 subtable" uni0665 dx=-175 dy=0 dh=-175 dv=0 dx=0 dy=0 dh=0 dv=0
PairPos2: "kernHorizontalKerninginArabiclookup3 subtable" uni0660 dx=-200 dy=0 dh=-200 dv=0 dx=0 dy=0 dh=0 dv=0
PairPos2: "kernHorizontalKerninginArabiclookup3 subtable" uni066B dx=-150 dy=0 dh=-150 dv=0 dx=0 dy=0 dh=0 dv=0
PairPos2: "kernHorizontalKerninginArabiclookup3 subtable" uni0668 dx=-200 dy=0 dh=-200 dv=0 dx=0 dy=0 dh=0 dv=0
EndChar

StartChar: uni0667
Encoding: 1639 1639 268
Width: 1315
VWidth: 0
GlyphClass: 2
Flags: HW
LayerCount: 2
Fore
SplineSet
1051 1354 m 257
 1248 1200 l 257
 996 874 844 620 768 0 c 257
 548 0 l 257
 477 590 336 851 67 1201 c 257
 266 1354 l 257
 439 1127 565 929 658 580 c 257
 750 930 877 1127 1051 1354 c 257
EndSplineSet
PairPos2: "kernHorizontalKerninginArabiclookup3 subtable" uni0660 dx=-100 dy=0 dh=-100 dv=0 dx=0 dy=0 dh=0 dv=0
PairPos2: "kernHorizontalKerninginArabiclookup3 subtable" uni0665 dx=-100 dy=0 dh=-100 dv=0 dx=0 dy=0 dh=0 dv=0
PairPos2: "kernHorizontalKerninginArabiclookup3 subtable" uni0668 dx=-150 dy=0 dh=-150 dv=0 dx=0 dy=0 dh=0 dv=0
PairPos2: "kernHorizontalKerninginArabiclookup3 subtable" uni066B dx=-125 dy=0 dh=-125 dv=0 dx=0 dy=0 dh=0 dv=0
EndChar

StartChar: uni0668
Encoding: 1640 1640 269
Width: 1315
VWidth: 0
GlyphClass: 2
Flags: HW
LayerCount: 2
Fore
SplineSet
264 -30 m 257
 67 124 l 257
 319 450 471 704 547 1324 c 257
 767 1324 l 257
 838 734 979 474 1248 124 c 257
 1050 -29 l 257
 877 198 750 395 657 744 c 257
 565 394 438 197 264 -30 c 257
EndSplineSet
PairPos2: "kernHorizontalKerninginArabiclookup3 subtable" uni0663 dx=-200 dy=0 dh=-200 dv=0 dx=0 dy=0 dh=0 dv=0
PairPos2: "kernHorizontalKerninginArabiclookup3 subtable" uni0662 dx=-175 dy=0 dh=-175 dv=0 dx=0 dy=0 dh=0 dv=0
PairPos2: "kernHorizontalKerninginArabiclookup3 subtable" uni0667 dx=-150 dy=0 dh=-150 dv=0 dx=0 dy=0 dh=0 dv=0
EndChar

StartChar: uni0669
Encoding: 1641 1641 270
Width: 1035
VWidth: 0
GlyphClass: 2
Flags: HW
LayerCount: 2
Fore
SplineSet
610 535 m 257
 575 529 539 526 501 526 c 256
 306 526 75 611 75 878 c 256
 75 1091 199 1354 467 1354 c 256
 774 1354 853 1072 853 850 c 256
 853 703 857 555 874 450 c 257
 890 288 924 177 972 70 c 257
 742 -30 l 257
 667 143 622 272 610 535 c 257
603 787 m 257
 603 850 l 258
 603 1053 559 1104 467 1104 c 256
 403 1104 325 1027 325 878 c 256
 325 806 368 776 501 776 c 256
 537 776 571 781 603 787 c 257
EndSplineSet
PairPos2: "kernHorizontalKerninginArabiclookup3 subtable" uni066B dx=200 dy=0 dh=200 dv=0 dx=0 dy=0 dh=0 dv=0
PairPos2: "kernHorizontalKerninginArabiclookup3 subtable" uni0668 dx=-150 dy=0 dh=-150 dv=0 dx=0 dy=0 dh=0 dv=0
PairPos2: "kernHorizontalKerninginArabiclookup3 subtable" uni0665 dx=-50 dy=0 dh=-50 dv=0 dx=0 dy=0 dh=0 dv=0
EndChar

StartChar: uni066B
Encoding: 1643 1643 272
Width: 787
VWidth: 0
GlyphClass: 2
Flags: HW
LayerCount: 2
Fore
SplineSet
276 -300 m 257
 44 -210 l 257
 520 1005 l 257
 752 915 l 257
 276 -300 l 257
EndSplineSet
PairPos2: "kernHorizontalKerninginArabiclookup3 subtable" uni0663 dx=-150 dy=0 dh=-150 dv=0 dx=0 dy=0 dh=0 dv=0
PairPos2: "kernHorizontalKerninginArabiclookup3 subtable" uni0662 dx=-100 dy=0 dh=-100 dv=0 dx=0 dy=0 dh=0 dv=0
PairPos2: "kernHorizontalKerninginArabiclookup3 subtable" uni0667 dx=-100 dy=0 dh=-100 dv=0 dx=0 dy=0 dh=0 dv=0
PairPos2: "kernHorizontalKerninginArabiclookup3 subtable" uni06F7 dx=-100 dy=0 dh=-100 dv=0 dx=0 dy=0 dh=0 dv=0
PairPos2: "kernHorizontalKerninginArabiclookup3 subtable" uni06F0 dx=-50 dy=0 dh=-50 dv=0 dx=0 dy=0 dh=0 dv=0
PairPos2: "kernHorizontalKerninginArabiclookup3 subtable" uni06F3 dx=-75 dy=0 dh=-75 dv=0 dx=0 dy=0 dh=0 dv=0
PairPos2: "kernHorizontalKerninginArabiclookup3 subtable" uni06F2 dx=-100 dy=0 dh=-100 dv=0 dx=0 dy=0 dh=0 dv=0
PairPos2: "kernHorizontalKerninginArabiclookup3 subtable" uni066B dx=-50 dy=0 dh=-50 dv=0 dx=0 dy=0 dh=0 dv=0
EndChar

StartChar: uni066C
Encoding: 1644 1644 273
Width: 587
VWidth: 0
GlyphClass: 2
Flags: HW
LayerCount: 2
Fore
SplineSet
179 808 m 257
 121 877 l 257
 191 941 273 1056 301 1130 c 257
 232 1130 129 1190 129 1294 c 256
 129 1382 195 1459 284 1459 c 256
 375 1459 458 1400 458 1260 c 256
 458 1112 291 904 179 808 c 257
EndSplineSet
EndChar

StartChar: uni066D
Encoding: 1645 1645 274
Width: 910
VWidth: 0
GlyphClass: 2
Flags: HW
LayerCount: 2
Fore
SplineSet
543 658 m 257
 367 658 l 257
 367 933 l 257
 130 796 l 257
 41 949 l 257
 279 1086 l 257
 41 1224 l 257
 130 1376 l 257
 367 1240 l 257
 367 1514 l 257
 543 1514 l 257
 543 1240 l 257
 780 1376 l 257
 869 1224 l 257
 631 1086 l 257
 869 949 l 257
 780 796 l 257
 543 933 l 257
 543 658 l 257
EndSplineSet
EndChar

StartChar: uni06F4
Encoding: 1780 1780 300
Width: 1179
VWidth: 0
GlyphClass: 2
Flags: HW
LayerCount: 2
Fore
SplineSet
498 620 m 257
 534 385 543 236 543 0 c 257
 293 0 l 257
 293 490 195 868 72 1277 c 257
 309 1354 l 257
 336 1288 383 1162 404 1090 c 257
 447 1265 589 1366 762 1366 c 256
 836 1366 936 1333 1010 1297 c 257
 911 1068 l 257
 857 1102 808 1117 739 1117 c 256
 631 1117 542 1041 542 896 c 256
 542 804 640 786 756 786 c 256
 837 786 917 798 994 816 c 257
 1020 569 l 257
 943 549 872 540 806 540 c 256
 680 540 591 559 498 620 c 257
EndSplineSet
PairPos2: "kernHorizontalKerninginArabiclookup3 subtable" uni06F0 dx=-25 dy=0 dh=-25 dv=0 dx=0 dy=0 dh=0 dv=0
PairPos2: "kernHorizontalKerninginArabiclookup3 subtable" uni06F8 dx=-50 dy=0 dh=-50 dv=0 dx=0 dy=0 dh=0 dv=0
EndChar

StartChar: uni06F5
Encoding: 1781 1781 301
Width: 1276
VWidth: 0
GlyphClass: 2
Flags: HW
LayerCount: 2
Fore
SplineSet
646 44 m 257
 586 -4 511 -30 434 -30 c 256
 240 -30 75 130 75 386 c 256
 75 600 184 848 452 1090 c 257
 427 1110 400 1130 371 1151 c 257
 514 1354 l 257
 586 1304 657 1251 722 1194 c 256
 1013 940 1201 653 1201 371 c 256
 1201 125 1040 -30 852 -30 c 256
 777 -30 702 -3 646 44 c 257
553 375 m 257
 743 375 l 257
 743 305 l 258
 743 247 778 220 840 220 c 256
 892 220 951 247 951 371 c 256
 951 521 844 720 642 926 c 257
 402 719 325 523 325 386 c 256
 325 245 395 220 449 220 c 256
 517 220 553 253 553 305 c 258
 553 375 l 257
EndSplineSet
PairPos2: "kernHorizontalKerninginArabiclookup3 subtable" uni06F1 dx=50 dy=0 dh=50 dv=0 dx=0 dy=0 dh=0 dv=0
PairPos2: "kernHorizontalKerninginArabiclookup3 subtable" uni06F2 dx=-25 dy=0 dh=-25 dv=0 dx=0 dy=0 dh=0 dv=0
PairPos2: "kernHorizontalKerninginArabiclookup3 subtable" uni06F3 dx=-25 dy=0 dh=-25 dv=0 dx=0 dy=0 dh=0 dv=0
PairPos2: "kernHorizontalKerninginArabiclookup3 subtable" uni06F7 dx=-100 dy=0 dh=-100 dv=0 dx=0 dy=0 dh=0 dv=0
PairPos2: "kernHorizontalKerninginArabiclookup3 subtable" uni06F9 dx=-75 dy=0 dh=-75 dv=0 dx=0 dy=0 dh=0 dv=0
EndChar

StartChar: uni06F6
Encoding: 1782 1782 302
Width: 1034
VWidth: 0
GlyphClass: 2
Flags: HW
LayerCount: 2
Fore
SplineSet
565 762 m 256
 684 762 776 811 856 868 c 257
 1018 674 l 257
 719 469 457 230 280 -30 c 257
 63 94 l 257
 184 276 291 396 433 533 c 257
 259 565 81 680 81 906 c 256
 81 1158 268 1354 514 1354 c 256
 681 1354 782 1272 868 1192 c 257
 698 1008 l 257
 652 1059 599 1104 514 1104 c 256
 412 1104 331 1017 331 906 c 256
 331 808 441 762 565 762 c 256
EndSplineSet
EndChar

StartChar: uniE000
Encoding: 57344 57344 306
Width: 120
VWidth: 0
GlyphClass: 2
Flags: HW
LayerCount: 2
Fore
SplineSet
0 248 m 258
 120 248 l 257
 120 -2 l 257
 0 -2 l 258
 -69 -2 -125 54 -125 123 c 256
 -125 192 -69 248 0 248 c 258
EndSplineSet
EndChar

StartChar: uniE001
Encoding: 57345 57345 307
Width: 320
VWidth: 0
GlyphClass: 2
Flags: HW
LayerCount: 2
Fore
SplineSet
0 248 m 258
 320 248 l 257
 320 -2 l 257
 0 -2 l 258
 -69 -2 -125 54 -125 123 c 256
 -125 192 -69 248 0 248 c 258
EndSplineSet
EndChar

StartChar: uniE002
Encoding: 57346 57346 308
Width: 450
VWidth: 0
GlyphClass: 2
Flags: HW
LayerCount: 2
Fore
SplineSet
0 248 m 258
 450 248 l 257
 450 -2 l 257
 0 -2 l 258
 -69 -2 -125 54 -125 123 c 256
 -125 192 -69 248 0 248 c 258
EndSplineSet
EndChar

StartChar: uniE003
Encoding: 57347 57347 309
Width: 1762
VWidth: 0
GlyphClass: 2
Flags: HW
LayerCount: 2
Fore
SplineSet
1567 1538 m 257
 1689 1411 l 257
 195 -31 l 257
 73 96 l 257
 1567 1538 l 257
EndSplineSet
EndChar

StartChar: uniE004
Encoding: 57348 57348 310
Width: 1088
VWidth: 0
GlyphClass: 2
Flags: HW
LayerCount: 2
Fore
SplineSet
206 -24 m 257
 67 84 l 257
 882 1132 l 257
 1021 1024 l 257
 206 -24 l 257
EndSplineSet
EndChar

StartChar: uniE005
Encoding: 57349 57349 311
Width: 1462
VWidth: 0
GlyphClass: 2
Flags: HW
LayerCount: 2
Fore
SplineSet
1394 58 m 257
 1259 -55 l 257
 762 540 l 257
 896 652 l 257
 1394 58 l 257
EndSplineSet
EndChar

StartChar: uniE006
Encoding: 57350 57350 312
Width: 1146
VWidth: 0
GlyphClass: 2
Flags: HW
LayerCount: 2
Fore
SplineSet
214 110 m 257
 214 286 l 257
 932 286 l 257
 932 110 l 257
 214 110 l 257
214 436 m 257
 214 612 l 257
 932 612 l 257
 932 436 l 257
 214 436 l 257
EndSplineSet
EndChar

StartChar: uniE007
Encoding: 57351 57351 313
Width: 869
VWidth: 0
GlyphClass: 2
Flags: HW
LayerCount: 2
Fore
SplineSet
580 1592 m 257
 551 1606 506 1622 472 1622 c 256
 391 1622 348 1568 348 1527 c 256
 348 1473 380 1460 450 1438 c 256
 509 1420 610 1386 610 1274 c 256
 610 1143 460 1082 344 1082 c 256
 274 1082 213 1097 161 1122 c 257
 206 1216 l 257
 242 1199 286 1187 344 1187 c 256
 445 1187 504 1231 504 1269 c 256
 504 1299 486 1315 418 1336 c 256
 352 1356 242 1398 242 1530 c 256
 242 1640 347 1727 472 1727 c 256
 530 1727 578 1708 620 1689 c 257
 580 1592 l 257
EndSplineSet
EndChar

StartChar: uniE008
Encoding: 57352 57352 314
Width: 1454
VWidth: 0
GlyphClass: 2
Flags: HW
LayerCount: 2
Fore
SplineSet
508 1184 m 256
 508 1254 456 1309 392 1309 c 256
 328 1309 276 1252 276 1184 c 256
 276 1116 327 1065 392 1065 c 256
 456 1065 508 1116 508 1184 c 256
671 1185 m 256
 671 1031 549 903 392 903 c 256
 236 903 112 1031 112 1185 c 256
 112 1333 227 1472 392 1472 c 256
 558 1472 671 1332 671 1185 c 256
EndSplineSet
EndChar

StartChar: uniE009
Encoding: 57353 57353 315
Width: 1146
VWidth: 0
GlyphClass: 2
Flags: HW
LayerCount: 2
Fore
SplineSet
485 1680 m 257
 661 1680 l 257
 661 -182 l 257
 485 -182 l 257
 485 1680 l 257
EndSplineSet
EndChar

StartChar: uniE00A
Encoding: 57354 57354 316
Width: 1214
VWidth: 0
GlyphClass: 2
Flags: HW
LayerCount: 2
Fore
SplineSet
78 478 m 257
 78 654 l 257
 738 654 l 257
 738 478 l 257
 78 478 l 257
EndSplineSet
EndChar

StartChar: uniE00B
Encoding: 57355 57355 317
Width: 1108
VWidth: 0
GlyphClass: 2
Flags: HW
LayerCount: 2
Fore
SplineSet
911 647 m 257
 808 501 l 257
 755 512 697 518 635 518 c 256
 459 518 318 453 318 328 c 256
 318 257 364 197 473 197 c 256
 597 197 711 287 711 412 c 257
 871 412 l 257
 871 129 624 -12 420 -12 c 256
 216 -12 76 117 76 321 c 256
 76 620 397 686 635 686 c 256
 736 686 829 668 911 647 c 257
EndSplineSet
EndChar

StartChar: uniE00C
Encoding: 57356 57356 318
Width: 1536
VWidth: 0
GlyphClass: 2
Flags: HW
LayerCount: 2
Fore
SplineSet
838 755 m 257
 838 947 925 1160 1164 1160 c 256
 1457 1160 1491 891 1491 755 c 258
 1491 -6 l 257
 1241 -6 l 257
 1241 755 l 258
 1241 850 1180 932 1067 932 c 256
 961 932 895 845 893 755 c 257
 838 755 l 257
EndSplineSet
EndChar

StartChar: uniE00D
Encoding: 57357 57357 319
Width: 1068
VWidth: 0
GlyphClass: 2
Flags: HW
LayerCount: 2
Fore
SplineSet
265 685 m 257
 265 958 375 1159 639 1159 c 256
 950 1159 1008 894 1008 731 c 258
 1008 0 l 257
 758 0 l 257
 758 690 l 258
 758 846 682 931 542 931 c 256
 400 931 325 844 325 685 c 257
 265 685 l 257
EndSplineSet
EndChar

StartChar: uniE00E
Encoding: 57358 57358 320
Width: 754
VWidth: 0
GlyphClass: 2
Flags: HW
LayerCount: 2
Fore
SplineSet
325 541 m 257
 165 541 l 257
 165 813 272 1140 626 1140 c 258
 692 1140 l 257
 692 912 l 257
 581 912 l 258
 405 912 325 760 325 541 c 257
EndSplineSet
EndChar

StartChar: uniE00F
Encoding: 57359 57359 321
Width: 1158
VWidth: 0
GlyphClass: 2
Flags: HW
LayerCount: 2
Fore
SplineSet
692 1159 m 256
 1032 1159 1148 839 1148 569 c 256
 1148 298 1032 -20 692 -20 c 256
 355 -20 230 291 230 569 c 256
 230 847 354 1159 692 1159 c 256
622 932 m 256
 451 932 345 791 345 569 c 256
 345 347 450 206 622 206 c 256
 794 206 898 347 898 569 c 256
 898 791 793 932 622 932 c 256
EndSplineSet
EndChar

StartChar: uniE020
Encoding: 57376 57376 331
Width: 878
VWidth: 0
GlyphClass: 2
Flags: HW
LayerCount: 2
Fore
SplineSet
707 687 m 257
 573 574 l 257
 543 610 500 641 431 641 c 256
 355 641 272 572 272 468 c 256
 272 384 336 339 458 339 c 257
 734 452 l 257
 802 289 l 257
 145 18 l 257
 78 180 l 257
 228 243 l 257
 152 283 96 350 96 458 c 256
 96 672 257 817 431 817 c 256
 561 817 653 751 707 687 c 257
EndSplineSet
EndChar

StartChar: uniE021
Encoding: 57377 57377 332
Width: 560
VWidth: 0
GlyphClass: 2
Flags: HW
LayerCount: 2
Fore
SplineSet
561 1630 m 257
 687 1570 l 257
 621 1419 539 1350 419 1350 c 256
 370 1350 311 1364 242 1389 c 256
 195 1406 161 1416 133 1416 c 256
 81 1416 48 1378 -4 1306 c 257
 -127 1378 l 257
 -54 1522 48 1598 156 1598 c 256
 187 1598 216 1593 256 1579 c 256
 362 1541 401 1528 434 1528 c 256
 482 1528 517 1548 561 1630 c 257
405 1196 m 257
 405 6 l 257
 155 6 l 257
 155 1196 l 257
 405 1196 l 257
EndSplineSet
EndChar

StartChar: uniE022
Encoding: 57378 57378 333
Width: 500
VWidth: 0
GlyphClass: 2
Flags: HW
LayerCount: 2
Fore
SplineSet
375 6 m 257
 125 6 l 257
 125 1314 l 257
 375 1314 l 257
 375 6 l 257
EndSplineSet
EndChar

StartChar: uniE023
Encoding: 57379 57379 334
Width: 1360
VWidth: 0
GlyphClass: 2
Flags: HW
LayerCount: 2
Fore
SplineSet
1238 -366 m 257
 1334 -596 l 257
 1174 -666 998 -714 742 -714 c 256
 392 -714 51 -571 51 -178 c 256
 51 252 484 447 900 579 c 257
 589 686 l 258
 554 697 528 701 507 701 c 256
 407 701 367 623 346 441 c 257
 98 468 l 257
 125 725 223 951 507 951 c 256
 558 951 612 944 670 923 c 258
 1268 696 l 257
 1268 437 l 257
 696 291 301 115 301 -178 c 256
 301 -383 506 -460 762 -460 c 256
 955 -460 1107 -423 1238 -366 c 257
EndSplineSet
EndChar

StartChar: uniE024
Encoding: 57380 57380 335
Width: 936
VWidth: 0
GlyphClass: 2
Flags: HW
LayerCount: 2
Fore
SplineSet
883 375 m 256
 883 75 572 0 352 0 c 256
 252 0 145 16 51 42 c 257
 113 282 l 257
 189 264 267 249 358 249 c 256
 494 249 635 286 635 393 c 256
 635 500 530 656 324 829 c 257
 484 1019 l 257
 717 823 883 618 883 375 c 256
EndSplineSet
EndChar

StartChar: uniE025
Encoding: 57381 57381 336
Width: 834
VWidth: 0
GlyphClass: 2
Flags: HW
LayerCount: 2
Fore
SplineSet
426 607 m 257
 658 700 l 257
 726 527 781 344 781 179 c 256
 781 -160 524 -395 157 -528 c 257
 72 -294 l 257
 362 -188 531 -47 531 179 c 256
 531 296 486 459 426 607 c 257
EndSplineSet
EndChar

StartChar: uniE026
Encoding: 57382 57382 337
Width: 2378
VWidth: 0
GlyphClass: 2
Flags: HW
LayerCount: 2
Fore
SplineSet
1963 -2 m 256
 1873 -2 1778 31 1710 100 c 257
 1650 34 1570 -2 1473 -2 c 256
 1431 -2 1389 7 1353 30 c 257
 1307 -336 1010 -505 684 -505 c 256
 356 -505 53 -330 53 55 c 256
 53 248 131 455 237 639 c 257
 453 519 l 257
 357 357 303 176 303 55 c 256
 303 -133 419 -255 684 -255 c 256
 972 -255 1116 -111 1116 105 c 256
 1116 245 1064 382 969 613 c 257
 1204 702 l 257
 1330 342 1367 250 1473 250 c 256
 1545 250 1585 304 1599 414 c 258
 1628 645 l 257
 1859 624 l 257
 1842 464 l 258
 1839 439 1838 414 1838 392 c 256
 1838 296 1874 250 1959 250 c 256
 2046 250 2076 320 2076 422 c 256
 2076 536 2036 682 2014 752 c 257
 2254 827 l 257
 2291 709 2325 571 2325 435 c 256
 2325 245 2241 -2 1963 -2 c 256
EndSplineSet
EndChar

StartChar: uniE027
Encoding: 57383 57383 338
Width: 2322
VWidth: 0
GlyphClass: 2
Flags: HW
LayerCount: 2
Fore
SplineSet
1671 -2 m 256
 1567 -2 1452 16 1356 47 c 257
 1305 -330 1024 -505 684 -505 c 256
 356 -505 53 -330 53 55 c 256
 53 248 131 455 237 639 c 257
 453 519 l 257
 357 357 303 176 303 55 c 256
 303 -133 419 -255 684 -255 c 256
 972 -255 1116 -111 1116 105 c 256
 1116 245 1064 382 969 613 c 257
 1204 702 l 257
 1244 614 1277 524 1304 434 c 257
 1467 684 1672 797 1864 797 c 256
 2077 797 2268 649 2268 415 c 256
 2268 95 1921 -2 1671 -2 c 256
1492 269 m 257
 1550 255 1611 248 1671 248 c 256
 1910 248 2018 332 2018 415 c 256
 2018 489 1961 547 1864 547 c 256
 1762 547 1624 487 1492 269 c 257
EndSplineSet
EndChar

StartChar: uniE028
Encoding: 57384 57384 339
Width: 1515
VWidth: 0
GlyphClass: 2
Flags: HW
LayerCount: 2
Fore
SplineSet
638 264 m 257
 638 251 l 257
 1144 253 1190 360 1190 457 c 256
 1190 529 1139 588 1045 588 c 256
 951 588 762 506 638 264 c 257
353 250 m 257
 353 1314 l 257
 603 1314 l 257
 603 576 l 257
 749 756 923 838 1080 838 c 256
 1246 838 1440 713 1440 482 c 256
 1440 158 1170 0 478 0 c 258
 68 0 l 257
 68 250 l 257
 353 250 l 257
EndSplineSet
EndChar

StartChar: uniE029
Encoding: 57385 57385 340
Width: 1299
VWidth: 0
GlyphClass: 2
Flags: HW
LayerCount: 2
Fore
SplineSet
1020 995 m 257
 829 834 l 257
 782 899 712 969 596 969 c 256
 470 969 379 873 379 743 c 256
 379 619 512 575 696 575 c 256
 802 575 914 593 1012 611 c 257
 1046 356 l 257
 652 329 306 201 306 -110 c 256
 306 -333 520 -436 764 -436 c 256
 902 -436 1044 -407 1151 -362 c 257
 1251 -591 l 257
 1110 -658 938 -696 768 -696 c 256
 403 -696 56 -519 56 -129 c 256
 56 121 190 291 354 397 c 257
 235 452 129 556 129 717 c 256
 129 1005 342 1219 596 1219 c 256
 809 1219 928 1103 1020 995 c 257
EndSplineSet
EndChar

StartChar: uniE02A
Encoding: 57386 57386 341
Width: 811
VWidth: 0
GlyphClass: 2
Flags: HW
LayerCount: 2
Fore
SplineSet
0 250 m 258
 811 250 l 257
 811 0 l 257
 0 0 l 258
 -69 0 -125 56 -125 125 c 256
 -125 194 -69 250 0 250 c 258
EndSplineSet
EndChar

StartChar: uniE02B
Encoding: 57387 57387 342
Width: 1707
VWidth: 0
GlyphClass: 2
Flags: HW
LayerCount: 2
Fore
SplineSet
1240 1320 m 257
 1490 1320 l 257
 1490 567 l 258
 1490 376 1452 240 1361 149 c 256
 1257 45 1084 0 773 0 c 256
 447 0 53 47 53 445 c 256
 53 547 70 653 92 740 c 257
 335 683 l 257
 320 615 303 513 303 445 c 256
 303 304 429 250 755 250 c 256
 1023 250 1127 262 1182 320 c 256
 1227 367 1240 444 1240 567 c 258
 1240 1320 l 257
EndSplineSet
EndChar

StartChar: uniE02C
Encoding: 57388 57388 343
Width: 1268
VWidth: 0
GlyphClass: 2
Flags: HW
LayerCount: 2
Fore
SplineSet
932 1314 m 257
 1182 1314 l 257
 1182 94 l 258
 1182 -294 957 -505 602 -505 c 256
 282 -505 53 -305 53 10 c 256
 53 135 83 274 146 428 c 257
 369 338 l 257
 318 206 302 88 302 4 c 256
 302 -159 394 -255 618 -255 c 256
 838 -255 932 -168 932 94 c 258
 932 1314 l 257
EndSplineSet
EndChar

StartChar: uniE02D
Encoding: 57389 57389 344
Width: 1199
VWidth: 0
GlyphClass: 2
Flags: HW
LayerCount: 2
Fore
SplineSet
329 324 m 257
 359 510 463 794 760 794 c 256
 1015 794 1144 556 1144 350 c 256
 1144 101 963 0 793 0 c 256
 683 0 577 28 495 60 c 256
 448 78 434 83 401 83 c 256
 347 83 303 52 303 -51 c 258
 303 -785 l 257
 53 -785 l 257
 53 -51 l 258
 53 126 155 288 329 324 c 257
578 297 m 257
 653 274 727 250 793 250 c 256
 866 250 894 268 894 341 c 256
 894 471 830 544 760 544 c 256
 668 544 604 445 578 297 c 257
EndSplineSet
EndChar

StartChar: uniE02E
Encoding: 57390 57390 345
Width: 869
VWidth: 0
GlyphClass: 2
Flags: HW
LayerCount: 2
Fore
SplineSet
435 250 m 256
 523 250 567 283 567 359 c 256
 567 434 518 528 435 618 c 257
 352 529 302 432 302 359 c 256
 302 284 346 250 435 250 c 256
435 0 m 256
 221 0 66 148 66 354 c 256
 66 616 267 806 435 953 c 257
 603 806 803 615 803 354 c 256
 803 148 649 0 435 0 c 256
EndSplineSet
EndChar

StartChar: uniE02F
Encoding: 57391 57391 346
Width: 928
VWidth: 0
GlyphClass: 2
Flags: HW
LayerCount: 2
Fore
SplineSet
583 6 m 257
 552 0 522 -3 488 -3 c 256
 296 -3 87 94 87 351 c 256
 87 562 226 823 470 823 c 256
 852 823 875 304 875 146 c 256
 875 -228 585 -414 157 -528 c 257
 74 -292 l 257
 349 -224 529 -110 583 6 c 257
618 263 m 257
 596 457 545 573 470 573 c 256
 405 573 337 485 337 351 c 256
 337 277 368 247 488 247 c 256
 537 247 577 252 618 263 c 257
EndSplineSet
EndChar

StartChar: uniE030
Encoding: 57392 57392 347
Width: 0
VWidth: 0
GlyphClass: 2
Flags: H
LayerCount: 2
Fore
SplineSet
-221 1863 m 256
 -221 1803 -201 1750 -173 1710 c 257
 -251 1661 l 257
 -290 1719 -316 1790 -316 1867 c 256
 -316 2066 -157 2226 42 2226 c 257
 44 2135 l 257
 -99 2135 -221 2013 -221 1863 c 256
EndSplineSet
EndChar

StartChar: uniE031
Encoding: 57393 57393 348
Width: 0
VWidth: 0
GlyphClass: 2
Flags: H
LayerCount: 2
Fore
SplineSet
183 1770 m 257
 226 1674 l 257
 -183 1488 l 257
 -226 1584 l 257
 183 1770 l 257
EndSplineSet
EndChar

StartChar: uniE032
Encoding: 57394 57394 349
Width: 0
VWidth: 0
GlyphClass: 2
Flags: H
LayerCount: 2
Fore
SplineSet
1 1695 m 257
 -61 1725 -128 1777 -128 1861 c 256
 -128 1962 -37 2036 49 2036 c 256
 157 2036 202 1936 202 1870 c 256
 202 1658 -15 1540 -172 1491 c 257
 -207 1590 l 257
 -131 1614 -58 1650 1 1695 c 257
72 1778 m 257
 88 1808 97 1838 97 1870 c 256
 97 1902 77 1932 47 1932 c 256
 16 1932 -23 1895 -23 1863 c 256
 -23 1830 6 1803 72 1778 c 257
EndSplineSet
EndChar

StartChar: uniE033
Encoding: 57395 57395 350
Width: 0
VWidth: 0
GlyphClass: 2
Flags: H
LayerCount: 2
Fore
SplineSet
164 1699 m 256
 164 1756 151 1799 133 1849 c 257
 232 1885 l 257
 253 1828 268 1772 268 1699 c 256
 268 1598 207 1524 124 1524 c 256
 77 1524 32 1549 0 1589 c 257
 -34 1547 -77 1524 -124 1524 c 256
 -207 1524 -268 1598 -268 1699 c 256
 -268 1772 -253 1828 -232 1885 c 257
 -133 1849 l 257
 -151 1799 -164 1756 -164 1699 c 256
 -164 1640 -137 1630 -114 1630 c 256
 -90 1630 -52 1645 -52 1706 c 258
 -52 1788 l 257
 52 1788 l 257
 52 1706 l 258
 52 1645 89 1630 115 1630 c 256
 137 1630 164 1640 164 1699 c 256
EndSplineSet
EndChar

StartChar: uniE034
Encoding: 57396 57396 351
Width: 0
VWidth: 0
GlyphClass: 2
Flags: H
LayerCount: 2
Fore
SplineSet
0 1847 m 256
 -57 1847 -102 1804 -102 1747 c 256
 -102 1690 -56 1645 0 1645 c 256
 55 1645 102 1692 102 1747 c 256
 102 1802 57 1847 0 1847 c 256
0 1952 m 256
 113 1952 206 1862 206 1747 c 256
 206 1632 115 1540 0 1540 c 256
 -116 1540 -206 1634 -206 1747 c 256
 -206 1860 -116 1952 0 1952 c 256
EndSplineSet
EndChar

StartChar: uniE035
Encoding: 57397 57397 352
Width: 0
VWidth: 0
GlyphClass: 2
Flags: H
LayerCount: 2
Fore
SplineSet
-270 1532 m 257
 -239 1594 -181 1669 -87 1669 c 256
 -47 1669 -8 1654 30 1626 c 256
 54 1607 72 1602 86 1602 c 256
 118 1602 153 1635 173 1682 c 257
 269 1642 l 257
 240 1572 180 1497 86 1497 c 256
 45 1497 5 1513 -34 1542 c 256
 -57 1560 -75 1564 -87 1564 c 256
 -120 1564 -155 1530 -176 1487 c 257
 -270 1532 l 257
EndSplineSet
EndChar

StartChar: uniE036
Encoding: 57398 57398 353
Width: 0
VWidth: 0
GlyphClass: 2
Flags: H
LayerCount: 2
Fore
SplineSet
-183 1487 m 257
 -226 1583 l 257
 -137 1623 l 257
 -174 1672 -193 1727 -193 1781 c 256
 -193 1887 -112 1980 23 1980 c 258
 112 1980 l 257
 112 1874 l 257
 23 1874 l 258
 -60 1874 -88 1831 -88 1781 c 256
 -88 1747 -72 1703 -39 1668 c 257
 184 1769 l 257
 227 1673 l 257
 -183 1487 l 257
EndSplineSet
EndChar

StartChar: uniE037
Encoding: 57399 57399 354
Width: 0
VWidth: 0
GlyphClass: 2
Flags: H
LayerCount: 2
Fore
SplineSet
-252 1842 m 257
 -168 1905 l 257
 0 1680 l 257
 168 1905 l 257
 252 1842 l 257
 0 1505 l 257
 -252 1842 l 257
EndSplineSet
EndChar

StartChar: uniE038
Encoding: 57400 57400 355
Width: 1782
VWidth: 0
GlyphClass: 2
Flags: HW
LayerCount: 2
Fore
SplineSet
1678 792 m 257
 1707 700 1728 576 1728 467 c 256
 1728 72 1309 0 891 0 c 256
 473 0 54 72 54 467 c 256
 54 576 75 700 104 792 c 257
 346 726 l 257
 324 655 302 553 302 477 c 256
 302 277 609 250 891 250 c 256
 1173 250 1480 277 1480 477 c 256
 1480 553 1458 655 1436 726 c 257
 1678 792 l 257
EndSplineSet
EndChar

StartChar: uniE039
Encoding: 57401 57401 356
Width: 1415
VWidth: 0
GlyphClass: 2
Flags: HW
LayerCount: 2
Fore
SplineSet
1106 264 m 257
 1084 458 1032 574 957 574 c 256
 892 574 824 486 824 352 c 256
 824 278 855 248 975 248 c 256
 1024 248 1065 253 1106 264 c 257
1101 9 m 257
 1065 3 1017 -2 975 -2 c 256
 783 -2 574 95 574 352 c 256
 574 563 713 824 957 824 c 256
 1338 824 1362 307 1362 147 c 256
 1362 -282 1068 -505 684 -505 c 256
 356 -505 53 -330 53 55 c 256
 53 239 123 425 220 602 c 257
 438 484 l 257
 352 329 303 168 303 55 c 256
 303 -133 419 -255 684 -255 c 256
 921 -255 1063 -155 1101 9 c 257
EndSplineSet
EndChar

StartChar: uniE03A
Encoding: 57402 57402 357
Width: 0
VWidth: 0
GlyphClass: 2
Flags: H
LayerCount: 2
Fore
SplineSet
-52 1884 m 257
 52 1884 l 257
 52 1540 l 257
 -52 1540 l 257
 -52 1884 l 257
EndSplineSet
EndChar

StartChar: uniE03B
Encoding: 57403 57403 358
Width: 1752
VWidth: 0
GlyphClass: 2
Flags: HW
LayerCount: 2
Fore
SplineSet
1442 641 m 257
 1420 835 1369 951 1294 951 c 256
 1229 951 1161 863 1161 729 c 256
 1161 655 1192 625 1312 625 c 256
 1361 625 1401 630 1442 641 c 257
1699 524 m 256
 1699 69 1326 0 832 0 c 256
 389 0 54 67 54 460 c 256
 54 569 79 685 108 777 c 257
 350 711 l 257
 328 640 305 545 305 469 c 256
 305 267 537 250 836 250 c 256
 1273 250 1413 288 1454 412 c 257
 1397 400 1341 394 1283 394 c 256
 1079 394 911 490 911 729 c 256
 911 940 1050 1201 1294 1201 c 256
 1676 1201 1699 682 1699 524 c 256
EndSplineSet
EndChar

StartChar: uniE03C
Encoding: 57404 57404 359
Width: 1848
VWidth: 0
GlyphClass: 2
Flags: HW
LayerCount: 2
Fore
SplineSet
108 777 m 257
 350 711 l 257
 328 640 305 545 305 469 c 256
 305 267 543 250 811 250 c 256
 1091 250 1267 297 1267 414 c 256
 1267 535 1027 737 819 891 c 257
 819 1110 l 257
 1080 1281 1392 1408 1710 1474 c 257
 1760 1229 l 257
 1534 1181 1306 1103 1106 992 c 257
 1106 982 l 257
 1307 816 1517 622 1517 392 c 256
 1517 62 1111 0 778 0 c 256
 409 0 54 67 54 460 c 256
 54 569 79 685 108 777 c 257
EndSplineSet
EndChar

StartChar: uniE03D
Encoding: 57405 57405 360
Width: 1512
VWidth: 0
GlyphClass: 2
Flags: HW
LayerCount: 2
Fore
SplineSet
1208 119 m 256
 1208 269 1118 469 1049 608 c 257
 1271 714 l 257
 1351 558 1458 345 1458 109 c 256
 1458 -312 1082 -505 734 -505 c 256
 398 -505 54 -322 54 74 c 256
 54 275 140 493 235 667 c 257
 453 541 l 257
 374 399 303 223 303 73 c 256
 303 -129 436 -255 725 -255 c 256
 1007 -255 1208 -117 1208 119 c 256
EndSplineSet
EndChar

StartChar: uniE03E
Encoding: 57406 57406 361
Width: 1449
VWidth: 0
GlyphClass: 2
Flags: HW
LayerCount: 2
Fore
SplineSet
1346 825 m 257
 1266 588 l 257
 1209 609 1133 622 1065 622 c 256
 892 622 801 529 801 394 c 256
 801 302 858 278 1020 269 c 256
 1200 259 1390 204 1390 -65 c 256
 1390 -379 1053 -505 726 -505 c 256
 356 -505 66 -335 66 30 c 256
 66 181 94 360 138 498 c 257
 376 424 l 257
 342 298 316 149 316 30 c 256
 316 -155 422 -255 730 -255 c 256
 1007 -255 1140 -171 1140 -77 c 256
 1140 -7 1114 14 960 22 c 256
 736 34 551 103 551 358 c 256
 551 662 757 872 1073 872 c 256
 1154 872 1258 854 1346 825 c 257
EndSplineSet
EndChar

StartChar: uniE03F
Encoding: 57407 57407 362
Width: 1864
VWidth: 0
GlyphClass: 2
Flags: HW
LayerCount: 2
Fore
SplineSet
1865 250 m 257
 1865 0 l 257
 1864 0 l 257
 1671 0 1541 78 1453 206 c 257
 1333 35 1035 0 778 0 c 256
 409 0 54 67 54 460 c 256
 54 569 79 685 108 777 c 257
 350 711 l 257
 328 640 305 545 305 469 c 256
 305 267 543 250 811 250 c 256
 1091 250 1267 297 1267 414 c 256
 1267 535 1027 737 819 891 c 257
 819 1110 l 257
 1080 1281 1392 1408 1710 1474 c 257
 1760 1229 l 257
 1534 1181 1306 1103 1106 992 c 257
 1106 982 l 257
 1328 811 1436 644 1512 508 c 256
 1602 348 1667 250 1864 250 c 257
 1865 250 l 257
EndSplineSet
EndChar

StartChar: uniE040
Encoding: 57408 57408 363
Width: 1660
VWidth: 0
GlyphClass: 2
Flags: HW
LayerCount: 2
Fore
SplineSet
235 667 m 257
 453 541 l 257
 373 399 303 223 303 73 c 256
 303 -128 437 -255 726 -255 c 256
 1008 -255 1208 -117 1208 119 c 256
 1208 269 1118 469 1049 608 c 257
 1271 714 l 257
 1416 384 l 258
 1459 283 1492 250 1659 250 c 258
 1660 250 l 257
 1660 0 l 257
 1659 0 l 258
 1581 0 1514 10 1451 33 c 257
 1401 -339 1065 -505 735 -505 c 256
 379 -505 54 -307 54 74 c 256
 54 276 140 493 235 667 c 257
EndSplineSet
EndChar

StartChar: uniE041
Encoding: 57409 57409 364
Width: 547
VWidth: 0
GlyphClass: 2
Flags: HW
LayerCount: 2
Fore
SplineSet
410 863 m 257
 459 720 488 581 488 457 c 256
 488 190 353 0 0 0 c 256
 -69 0 -125 56 -125 125 c 256
 -125 194 -69 250 0 250 c 256
 184 250 240 340 240 466 c 256
 240 564 207 679 174 784 c 257
 410 863 l 257
EndSplineSet
EndChar

StartChar: uniE042
Encoding: 57410 57410 365
Width: 767
VWidth: 0
GlyphClass: 2
Flags: HW
LayerCount: 2
Fore
SplineSet
0 250 m 256
 116 250 182 267 218 313 c 256
 251 355 259 421 259 522 c 258
 259 682 l 257
 509 682 l 257
 509 522 l 258
 509 420 517 355 551 313 c 256
 587 268 652 250 766 250 c 258
 767 250 l 257
 767 0 l 257
 766 0 l 257
 600 0 472 45 384 146 c 257
 295 44 164 0 0 0 c 256
 -69 0 -125 56 -125 125 c 256
 -125 194 -69 250 0 250 c 256
EndSplineSet
EndChar

StartChar: uniE043
Encoding: 57411 57411 366
Width: 1453
VWidth: 0
GlyphClass: 2
Flags: HW
LayerCount: 2
Fore
SplineSet
1453 250 m 257
 1453 0 l 257
 1354 0 l 257
 1384 -38 1397 -85 1397 -133 c 256
 1397 -408 1125 -583 738 -583 c 256
 342 -583 65 -383 65 15 c 256
 65 277 150 484 241 680 c 257
 464 563 l 257
 387 392 313 215 313 4 c 256
 313 -232 436 -333 734 -333 c 256
 1089 -333 1147 -201 1147 -149 c 256
 1147 -66 1037 0 667 0 c 257
 667 250 l 257
 1453 250 l 257
EndSplineSet
EndChar

StartChar: uniE044
Encoding: 57412 57412 367
Width: 596
VWidth: 0
GlyphClass: 2
Flags: HW
LayerCount: 2
Fore
SplineSet
125 1314 m 257
 375 1314 l 257
 375 441 l 258
 375 369 383 323 409 294 c 256
 439 260 496 250 595 250 c 257
 596 250 l 257
 596 0 l 257
 595 0 l 257
 438 0 318 40 238 120 c 256
 164 194 125 301 125 441 c 258
 125 1314 l 257
EndSplineSet
EndChar

StartChar: uniE045
Encoding: 57413 57413 368
Width: 1398
VWidth: 0
GlyphClass: 2
Flags: HW
LayerCount: 2
Fore
SplineSet
1238 -366 m 257
 1334 -596 l 257
 1174 -666 998 -714 742 -714 c 256
 392 -714 51 -571 51 -178 c 256
 51 252 484 447 900 579 c 257
 589 686 l 258
 554 697 528 701 507 701 c 256
 407 701 367 623 346 441 c 257
 98 468 l 257
 125 725 223 951 507 951 c 256
 558 951 612 944 670 923 c 258
 1268 696 l 257
 1268 437 l 257
 1217 424 1167 410 1119 396 c 257
 1183 314 1255 250 1397 250 c 258
 1398 250 l 257
 1398 0 l 257
 1397 0 l 258
 1138 0 972 152 866 317 c 257
 521 193 301 40 301 -178 c 256
 301 -383 506 -460 762 -460 c 256
 955 -460 1107 -423 1238 -366 c 257
EndSplineSet
EndChar

StartChar: uniE046
Encoding: 57414 57414 369
Width: 1316
VWidth: 0
GlyphClass: 2
Flags: HW
LayerCount: 2
Fore
SplineSet
52 499 m 257
 82 681 165 950 436 950 c 256
 506 950 578 931 652 895 c 258
 1232 638 l 257
 1232 408 l 257
 834 150 516 0 0 0 c 256
 -69 0 -125 56 -125 125 c 256
 -125 194 -69 250 0 250 c 256
 390 250 655 332 915 512 c 257
 543 670 l 258
 493 692 461 700 436 700 c 256
 385 700 328 646 298 459 c 257
 52 499 l 257
EndSplineSet
EndChar

StartChar: uniE047
Encoding: 57415 57415 370
Width: 1316
VWidth: 0
GlyphClass: 2
Flags: HW
LayerCount: 2
Fore
SplineSet
52 499 m 257
 82 681 165 950 436 950 c 256
 506 950 578 931 652 895 c 258
 1232 638 l 257
 1232 408 l 257
 1185 377 1138 348 1093 321 c 257
 1148 278 1213 250 1315 250 c 258
 1316 250 l 257
 1316 0 l 257
 1315 0 l 258
 1126 0 985 77 874 200 c 257
 616 71 354 0 0 0 c 256
 -69 0 -125 56 -125 125 c 256
 -125 194 -69 250 0 250 c 256
 390 250 655 332 915 512 c 257
 543 670 l 258
 493 692 461 700 436 700 c 256
 385 700 328 646 298 459 c 257
 52 499 l 257
EndSplineSet
EndChar

StartChar: uniE048
Encoding: 57416 57416 371
Width: 1180
VWidth: 0
GlyphClass: 2
Flags: HW
LayerCount: 2
Fore
SplineSet
1180 250 m 257
 1180 0 l 257
 1179 0 l 257
 1031 0 904 31 798 149 c 257
 709 41 566 0 429 0 c 256
 275 0 124 42 20 122 c 257
 144 341 l 257
 222 281 325 250 429 250 c 256
 576 250 640 314 640 384 c 256
 640 405 635 432 618 472 c 258
 433 906 l 257
 662 1006 l 257
 884 488 l 258
 980 262 1007 250 1179 250 c 257
 1180 250 l 257
EndSplineSet
EndChar

StartChar: uniE049
Encoding: 57417 57417 372
Width: 960
VWidth: 0
GlyphClass: 2
Flags: HW
LayerCount: 2
Fore
SplineSet
426 607 m 257
 658 700 l 257
 742 440 l 258
 796 276 834 250 959 250 c 257
 960 250 l 257
 960 0 l 257
 959 0 l 258
 883 0 829 13 764 44 c 257
 730 -218 469 -415 157 -528 c 257
 72 -294 l 257
 362 -188 531 -47 531 179 c 256
 531 288 492 439 426 607 c 257
EndSplineSet
EndChar

StartChar: uniE04A
Encoding: 57418 57418 373
Width: 2614
VWidth: 0
GlyphClass: 2
Flags: HW
LayerCount: 2
Fore
SplineSet
2279 774 m 257
 2324 544 l 258
 2372 304 2386 250 2613 250 c 257
 2614 250 l 257
 2614 0 l 257
 2613 0 l 257
 2433 0 2315 49 2235 135 c 257
 2177 55 2088 0 1963 0 c 256
 1873 0 1778 33 1710 102 c 257
 1650 36 1570 0 1473 0 c 256
 1431 0 1389 9 1353 32 c 257
 1307 -334 1010 -505 684 -505 c 256
 356 -505 53 -330 53 55 c 256
 53 248 131 455 237 639 c 257
 453 519 l 257
 357 357 303 176 303 55 c 256
 303 -133 419 -255 684 -255 c 256
 972 -255 1116 -111 1116 105 c 256
 1116 245 1064 382 969 613 c 257
 1204 702 l 257
 1332 342 1375 250 1472 250 c 256
 1548 250 1585 297 1599 416 c 258
 1628 647 l 257
 1860 622 l 257
 1836 394 l 258
 1835 384 1834 374 1834 364 c 256
 1834 273 1895 250 1959 250 c 256
 2043 250 2084 298 2084 406 c 256
 2084 452 2077 508 2064 575 c 258
 2034 724 l 257
 2279 774 l 257
EndSplineSet
EndChar

StartChar: uniE04B
Encoding: 57419 57419 374
Width: 1538
VWidth: 0
GlyphClass: 2
Flags: HW
LayerCount: 2
Fore
SplineSet
1438 770 m 257
 1468 633 1485 538 1485 391 c 256
 1485 289 1455 196 1400 127 c 256
 1338 47 1243 0 1128 0 c 256
 1025 0 939 43 880 108 c 257
 820 42 735 0 632 0 c 256
 517 0 424 53 365 130 c 257
 283 44 163 0 0 0 c 256
 -69 0 -125 56 -125 125 c 256
 -125 194 -69 250 0 250 c 256
 118 250 177 270 209 310 c 256
 243 352 259 431 259 565 c 258
 259 679 l 257
 509 679 l 257
 509 483 l 258
 509 410 520 348 542 306 c 256
 561 270 592 250 636 250 c 256
 680 250 712 270 731 306 c 256
 753 348 762 410 762 483 c 258
 762 669 l 257
 998 669 l 257
 998 483 l 258
 998 412 1007 350 1028 309 c 256
 1047 270 1079 250 1124 250 c 256
 1178 250 1211 273 1224 315 c 256
 1232 337 1235 363 1235 391 c 256
 1235 521 1219 608 1194 718 c 257
 1438 770 l 257
EndSplineSet
EndChar

StartChar: uniE04C
Encoding: 57420 57420 375
Width: 1735
VWidth: 0
GlyphClass: 2
Flags: HW
LayerCount: 2
Fore
SplineSet
1438 770 m 257
 1468 545 l 258
 1486 429 1511 338 1557 297 c 256
 1587 271 1638 250 1734 250 c 257
 1735 250 l 257
 1735 0 l 257
 1734 0 l 257
 1595 0 1475 36 1388 118 c 257
 1328 46 1236 0 1128 0 c 256
 1024 0 939 45 880 110 c 257
 820 44 736 0 632 0 c 256
 517 0 424 53 365 130 c 257
 283 44 163 0 0 0 c 256
 -69 0 -125 56 -125 125 c 256
 -125 194 -69 250 0 250 c 256
 118 250 177 269 209 309 c 256
 243 351 259 431 259 565 c 258
 259 679 l 257
 509 679 l 257
 509 483 l 258
 509 415 517 349 541 305 c 256
 559 270 591 250 636 250 c 256
 683 250 716 273 734 310 c 256
 757 356 762 422 762 483 c 258
 762 669 l 257
 998 669 l 257
 998 483 l 258
 998 418 1004 349 1031 303 c 256
 1050 271 1082 251 1125 251 c 256
 1168 251 1197 268 1213 297 c 256
 1226 321 1232 353 1232 391 c 256
 1232 475 1216 601 1190 732 c 257
 1438 770 l 257
EndSplineSet
EndChar

StartChar: uniE04D
Encoding: 57421 57421 376
Width: 2416
VWidth: 0
GlyphClass: 2
Flags: HW
LayerCount: 2
Fore
SplineSet
1304 434 m 257
 1467 684 1672 797 1864 797 c 256
 2077 797 2268 649 2268 415 c 256
 2268 367 2260 323 2244 285 c 257
 2273 264 2323 250 2415 250 c 257
 2416 250 l 257
 2416 0 l 257
 2415 0 l 257
 2271 0 2158 31 2077 96 c 257
 1958 25 1807 -2 1671 -2 c 256
 1567 -2 1452 16 1356 47 c 257
 1305 -330 1024 -505 684 -505 c 256
 356 -505 53 -330 53 55 c 256
 53 248 131 455 237 639 c 257
 453 519 l 257
 357 357 303 176 303 55 c 256
 303 -133 419 -255 684 -255 c 256
 972 -255 1116 -111 1116 105 c 256
 1116 245 1064 382 969 613 c 257
 1204 702 l 257
 1244 614 1277 524 1304 434 c 257
1492 269 m 257
 1550 255 1611 248 1671 248 c 256
 1910 248 2018 332 2018 415 c 256
 2018 489 1961 547 1864 547 c 256
 1762 547 1624 487 1492 269 c 257
EndSplineSet
EndChar

StartChar: uniE04E
Encoding: 57422 57422 377
Width: 1612
VWidth: 0
GlyphClass: 2
Flags: HW
LayerCount: 2
Fore
SplineSet
0 250 m 256
 116 250 168 276 196 304 c 256
 228 338 257 410 259 550 c 258
 259 679 l 257
 509 679 l 257
 509 516 l 258
 509 471 518 437 536 410 c 257
 724 709 955 838 1157 838 c 256
 1342 838 1537 713 1537 482 c 256
 1537 143 1104 0 829 0 c 256
 642 0 475 20 371 127 c 257
 281 32 148 0 0 0 c 256
 -69 0 -125 56 -125 125 c 256
 -125 194 -69 250 0 250 c 256
724 256 m 257
 754 252 789 250 829 250 c 256
 1131 250 1287 372 1287 467 c 256
 1287 539 1230 588 1142 588 c 256
 1043 588 881 519 724 256 c 257
EndSplineSet
EndChar

StartChar: uniE04F
Encoding: 57423 57423 378
Width: 1635
VWidth: 0
GlyphClass: 2
Flags: HW
LayerCount: 2
Fore
SplineSet
724 254 m 257
 754 250 789 248 829 248 c 256
 1131 248 1287 372 1287 467 c 256
 1287 539 1230 588 1142 588 c 256
 1043 588 881 517 724 254 c 257
509 679 m 257
 509 514 l 258
 509 468 517 436 532 410 c 257
 720 709 955 838 1157 838 c 256
 1342 838 1537 713 1537 482 c 256
 1537 407 1512 340 1474 283 c 257
 1507 260 1557 250 1634 250 c 257
 1635 250 l 257
 1635 0 l 257
 1634 0 l 257
 1490 0 1367 32 1280 110 c 257
 1141 34 970 0 829 0 c 256
 641 0 475 21 371 127 c 257
 281 35 152 0 0 0 c 256
 -69 0 -125 56 -125 125 c 256
 -125 194 -69 250 0 250 c 256
 118 250 172 277 200 308 c 256
 240 350 259 441 259 565 c 258
 259 679 l 257
 509 679 l 257
EndSplineSet
EndChar

StartChar: uniE050
Encoding: 57424 57424 379
Width: 1538
VWidth: 0
GlyphClass: 2
Flags: HW
LayerCount: 2
Fore
SplineSet
638 253 m 257
 1158 273 1190 360 1190 457 c 256
 1190 529 1139 588 1045 588 c 256
 950 588 762 499 638 253 c 257
353 250 m 257
 353 1314 l 257
 603 1314 l 257
 603 569 l 257
 749 749 922 838 1060 838 c 256
 1245 838 1440 713 1440 482 c 256
 1440 407 1424 338 1388 278 c 257
 1420 258 1470 250 1537 250 c 257
 1538 250 l 257
 1538 0 l 257
 1537 0 l 257
 1398 0 1281 27 1190 104 c 257
 1036 32 809 0 478 0 c 258
 68 0 l 257
 68 250 l 257
 353 250 l 257
EndSplineSet
EndChar

StartChar: uniE051
Encoding: 57425 57425 380
Width: 1317
VWidth: 0
GlyphClass: 2
Flags: HW
LayerCount: 2
Fore
SplineSet
418 253 m 257
 938 273 970 360 970 457 c 256
 970 529 919 588 825 588 c 256
 729 588 542 499 418 253 c 257
0 250 m 258
 133 250 l 257
 133 1314 l 257
 383 1314 l 257
 383 569 l 257
 529 749 702 838 840 838 c 256
 1025 838 1220 713 1220 482 c 256
 1220 158 950 0 258 0 c 258
 0 0 l 258
 -69 0 -125 56 -125 125 c 256
 -125 194 -69 250 0 250 c 258
EndSplineSet
EndChar

StartChar: uniE052
Encoding: 57426 57426 381
Width: 1318
VWidth: 0
GlyphClass: 2
Flags: HW
LayerCount: 2
Fore
SplineSet
418 253 m 257
 939 273 970 360 970 457 c 256
 970 529 919 588 825 588 c 256
 730 588 542 499 418 253 c 257
0 250 m 258
 133 251 l 257
 133 1314 l 257
 383 1314 l 257
 383 569 l 257
 528 748 701 838 840 838 c 256
 1025 838 1220 713 1220 482 c 256
 1220 407 1204 338 1168 278 c 257
 1200 258 1250 250 1317 250 c 257
 1318 250 l 257
 1318 0 l 257
 1317 0 l 257
 1178 0 1061 27 970 104 c 257
 816 32 589 0 258 0 c 258
 0 0 l 258
 -69 0 -125 56 -125 125 c 256
 -125 194 -69 250 0 250 c 258
EndSplineSet
EndChar

StartChar: uniE053
Encoding: 57427 57427 382
Width: 1144
VWidth: 0
GlyphClass: 2
Flags: HW
LayerCount: 2
Fore
SplineSet
1040 546 m 256
 1040 432 982 340 911 276 c 257
 981 259 1056 250 1143 250 c 257
 1144 250 l 257
 1144 0 l 257
 1143 0 l 257
 945 0 778 32 638 96 c 257
 442 8 290 -106 290 -256 c 256
 290 -411 496 -492 720 -492 c 256
 854 -492 989 -461 1065 -419 c 257
 1154 -653 l 257
 1025 -708 864 -740 706 -740 c 256
 363 -740 40 -593 40 -259 c 256
 40 -7 233 158 402 255 c 257
 295 333 197 426 109 530 c 257
 116 717 l 257
 240 812 400 884 594 884 c 256
 793 884 1040 778 1040 546 c 256
790 527 m 256
 790 591 702 634 606 634 c 256
 532 634 439 610 396 580 c 257
 396 571 l 257
 468 492 548 422 645 370 c 257
 748 424 790 480 790 527 c 256
EndSplineSet
EndChar

StartChar: uniE054
Encoding: 57428 57428 383
Width: 1083
VWidth: 0
GlyphClass: 2
Flags: HW
LayerCount: 2
Fore
SplineSet
328 459 m 256
 328 366 421 317 537 317 c 256
 561 317 586 319 610 323 c 258
 937 386 l 257
 984 140 l 257
 461 40 l 258
 317 13 164 0 0 0 c 256
 -70 0 -124 57 -124 125 c 256
 -124 193 -70 250 0 250 c 256
 54 250 106 253 156 257 c 257
 109 311 78 377 78 459 c 256
 78 730 277 941 527 941 c 256
 724 941 854 835 936 725 c 257
 741 564 l 257
 698 628 640 691 527 691 c 256
 415 691 328 597 328 459 c 256
EndSplineSet
EndChar

StartChar: uniE055
Encoding: 57429 57429 384
Width: 1026
VWidth: 0
GlyphClass: 2
Flags: HW
LayerCount: 2
Fore
SplineSet
50 668 m 257
 161 807 349 884 549 884 c 256
 730 884 980 779 980 530 c 256
 980 422 926 319 848 266 c 257
 893 257 960 250 1025 250 c 257
 1026 250 l 257
 1026 0 l 257
 1025 0 l 257
 863 0 722 28 596 89 c 257
 422 22 204 0 0 0 c 256
 -69 0 -125 56 -125 125 c 256
 -125 194 -69 250 0 250 c 256
 112 250 241 256 317 268 c 257
 225 318 121 419 50 492 c 257
 50 668 l 257
334 572 m 257
 334 560 l 257
 420 484 498 416 602 365 c 257
 694 412 730 468 730 519 c 256
 730 579 671 634 549 634 c 256
 477 634 390 607 334 572 c 257
EndSplineSet
EndChar

StartChar: uniE056
Encoding: 57430 57430 385
Width: 1748
VWidth: 0
GlyphClass: 2
Flags: HW
LayerCount: 2
Fore
SplineSet
1240 1320 m 257
 1490 1320 l 257
 1490 567 l 258
 1490 435 1499 347 1553 299 c 256
 1591 265 1650 250 1747 250 c 258
 1748 250 l 257
 1748 0 l 257
 1747 0 l 257
 1641 0 1543 21 1462 69 c 256
 1424 92 1391 122 1364 158 c 257
 1337 130 1304 106 1264 86 c 256
 1152 23 988 0 773 0 c 256
 447 0 53 47 53 445 c 256
 53 547 70 653 92 740 c 257
 335 683 l 257
 320 615 303 513 303 445 c 256
 303 304 428 250 783 250 c 256
 999 250 1119 256 1181 321 c 256
 1225 367 1240 443 1240 567 c 258
 1240 1320 l 257
EndSplineSet
EndChar

StartChar: uniE057
Encoding: 57431 57431 386
Width: 999
VWidth: 0
GlyphClass: 2
Flags: HW
LayerCount: 2
Fore
SplineSet
0 250 m 258
 121 250 l 258
 335 250 421 316 421 414 c 256
 421 535 181 737 -27 891 c 257
 -27 1110 l 257
 234 1281 546 1408 864 1474 c 257
 914 1229 l 257
 688 1181 460 1103 260 992 c 257
 260 982 l 257
 461 816 676 622 676 392 c 256
 676 76 310 0 126 0 c 258
 0 0 l 258
 -69 0 -125 56 -125 125 c 257
 -125 194 -69 250 0 250 c 258
EndSplineSet
EndChar

StartChar: uniE058
Encoding: 57432 57432 387
Width: 1020
VWidth: 0
GlyphClass: 2
Flags: HW
LayerCount: 2
Fore
SplineSet
0 250 m 258
 121 250 l 258
 335 250 421 316 421 414 c 256
 421 535 181 737 -27 891 c 257
 -27 1110 l 257
 234 1281 546 1408 864 1474 c 257
 914 1229 l 257
 688 1181 460 1103 260 992 c 257
 260 982 l 257
 482 811 590 644 666 508 c 256
 755 348 822 250 1019 250 c 258
 1020 250 l 257
 1020 0 l 257
 1019 0 l 258
 826 0 680 77 592 205 c 257
 502 73 349 0 126 0 c 258
 0 0 l 258
 -69 0 -125 56 -125 125 c 257
 -125 194 -69 250 0 250 c 258
EndSplineSet
EndChar

StartChar: uniE059
Encoding: 57433 57433 388
Width: 1439
VWidth: 0
GlyphClass: 2
Flags: HW
LayerCount: 2
Fore
SplineSet
1439 250 m 257
 1439 0 l 257
 1438 0 l 257
 1337 0 1247 20 1179 70 c 257
 1179 42 l 258
 1179 -283 936 -505 602 -505 c 256
 282 -505 53 -305 53 10 c 256
 53 135 83 274 146 428 c 257
 369 338 l 257
 318 206 302 88 302 4 c 256
 302 -159 394 -255 618 -255 c 256
 838 -255 932 -168 932 94 c 258
 932 1314 l 257
 1182 1314 l 257
 1182 565 l 258
 1182 427 1206 346 1234 310 c 256
 1261 276 1310 250 1438 250 c 257
 1439 250 l 257
EndSplineSet
EndChar

StartChar: uniE05A
Encoding: 57434 57434 389
Width: 596
VWidth: 0
GlyphClass: 2
Flags: HW
LayerCount: 2
Fore
SplineSet
471 441 m 258
 471 301 432 194 358 120 c 256
 278 40 157 0 0 0 c 256
 -69 0 -125 56 -125 125 c 256
 -125 194 -69 250 0 250 c 256
 100 250 157 260 187 294 c 256
 213 323 221 369 221 441 c 258
 221 1314 l 257
 471 1314 l 257
 471 441 l 258
EndSplineSet
EndChar

StartChar: uniE05B
Encoding: 57435 57435 390
Width: 692
VWidth: 0
GlyphClass: 2
Flags: HW
LayerCount: 2
Fore
SplineSet
0 250 m 256
 110 250 153 275 176 303 c 256
 208 344 221 419 221 524 c 258
 221 1314 l 257
 471 1314 l 257
 471 524 l 258
 471 419 486 344 516 304 c 256
 538 276 581 250 691 250 c 257
 692 250 l 257
 692 0 l 257
 691 0 l 257
 549 0 429 38 346 126 c 257
 262 35 142 0 0 0 c 256
 -69 0 -125 56 -125 125 c 256
 -125 194 -69 250 0 250 c 256
EndSplineSet
EndChar

StartChar: uniE05C
Encoding: 57436 57436 391
Width: 1329
VWidth: 0
GlyphClass: 2
Flags: HW
LayerCount: 2
Fore
SplineSet
578 296 m 257
 653 272 726 250 793 250 c 256
 861 250 894 276 894 350 c 256
 894 477 825 544 760 544 c 256
 668 544 603 444 578 296 c 257
1329 0 m 257
 1328 0 l 257
 1220 0 1125 28 1043 96 c 257
 975 27 882 0 793 0 c 256
 684 0 576 29 495 61 c 256
 465 73 439 83 401 83 c 256
 347 83 303 52 303 -51 c 258
 303 -785 l 257
 53 -785 l 257
 53 -51 l 258
 53 126 155 288 329 324 c 257
 359 510 463 794 760 794 c 256
 990 794 1119 597 1141 412 c 256
 1159 277 1201 250 1328 250 c 257
 1329 250 l 257
 1329 0 l 257
EndSplineSet
EndChar

StartChar: uniE05D
Encoding: 57437 57437 392
Width: 1046
VWidth: 0
GlyphClass: 2
Flags: HW
LayerCount: 2
Fore
SplineSet
0 250 m 256
 89 250 110 266 158 366 c 256
 173 397 188 435 204 479 c 256
 264 643 389 814 605 814 c 256
 860 814 993 563 993 370 c 256
 993 174 845 0 627 0 c 256
 483 0 396 64 308 140 c 257
 234 51 131 0 0 0 c 256
 -69 0 -125 56 -125 125 c 256
 -125 194 -69 250 0 250 c 256
430 367 m 257
 485 305 558 250 626 250 c 256
 683 250 743 293 743 370 c 256
 743 480 663 564 605 564 c 256
 543 564 487 520 440 392 c 257
 430 367 l 257
EndSplineSet
EndChar

StartChar: uniE05E
Encoding: 57438 57438 393
Width: 1238
VWidth: 0
GlyphClass: 2
Flags: HW
LayerCount: 2
Fore
SplineSet
0 250 m 256
 89 250 110 266 158 366 c 256
 173 397 188 435 204 479 c 256
 264 643 389 814 605 814 c 256
 839 814 969 603 990 421 c 256
 997 369 1015 333 1034 310 c 256
 1060 277 1109 250 1237 250 c 257
 1238 250 l 257
 1238 0 l 257
 1237 0 l 257
 1097 0 976 30 888 108 c 257
 828 41 725 0 628 0 c 256
 483 0 396 64 308 140 c 257
 234 51 131 0 0 0 c 256
 -69 0 -125 56 -125 125 c 256
 -125 194 -69 250 0 250 c 256
430 367 m 257
 485 305 557 250 628 250 c 256
 682 250 743 293 743 370 c 256
 743 480 663 564 605 564 c 256
 543 564 487 520 440 392 c 257
 430 367 l 257
EndSplineSet
EndChar

StartChar: uniE05F
Encoding: 57439 57439 394
Width: 1041
VWidth: 0
GlyphClass: 2
Flags: HW
LayerCount: 2
Fore
SplineSet
558 675 m 257
 372 647 305 569 305 507 c 256
 305 447 339 403 477 403 c 256
 505 403 541 408 574 417 c 257
 558 675 l 257
1041 0 m 257
 1040 0 l 257
 854 0 737 46 644 173 c 257
 594 163 523 153 477 153 c 256
 299 153 55 237 55 495 c 256
 55 755 312 882 542 929 c 257
 536 1048 l 257
 786 1063 l 257
 820 479 l 258
 829 322 866 250 1040 250 c 257
 1041 250 l 257
 1041 0 l 257
EndSplineSet
EndChar

StartChar: uniE060
Encoding: 57440 57440 395
Width: 1293
VWidth: 0
GlyphClass: 2
Flags: HW
LayerCount: 2
Fore
SplineSet
0 250 m 256
 63 250 125 254 177 262 c 257
 113 332 72 416 72 508 c 256
 72 624 134 732 227 800 c 257
 90 850 l 257
 183 1070 l 257
 682 887 l 258
 1041 756 1240 616 1240 358 c 256
 1240 163 1098 0 854 0 c 256
 758 0 595 24 473 67 c 257
 335 18 174 0 0 0 c 256
 -69 0 -125 56 -125 125 c 256
 -125 194 -69 250 0 250 c 256
481 334 m 257
 554 367 610 458 610 546 c 256
 610 619 579 679 499 679 c 256
 425 679 322 613 322 509 c 256
 322 447 381 386 481 334 c 257
712 270 m 257
 769 256 824 250 862 250 c 256
 950 250 990 285 990 358 c 256
 990 424 933 501 800 568 c 257
 814 456 777 342 712 270 c 257
EndSplineSet
EndChar

StartChar: uniE061
Encoding: 57441 57441 396
Width: 986
VWidth: 0
GlyphClass: 2
Flags: HW
LayerCount: 2
Fore
SplineSet
359 284 m 257
 524 318 632 384 632 507 c 256
 632 575 604 615 544 615 c 256
 465 615 381 535 359 284 c 257
986 0 m 257
 985 0 l 257
 867 0 802 -46 802 -152 c 258
 802 -390 l 257
 627 -504 l 257
 375 -459 205 -267 139 2 c 257
 94 1 48 0 0 0 c 257
 -69 0 -125 56 -125 125 c 256
 -125 194 -69 250 0 250 c 257
 43 250 82 251 120 252 c 257
 136 567 241 865 544 865 c 256
 743 865 865 742 865 546 c 256
 865 289 592 70 374 32 c 257
 405 -92 492 -202 581 -239 c 257
 592 -233 l 257
 592 -151 l 258
 592 39 782 249 985 250 c 257
 986 250 l 257
 986 0 l 257
EndSplineSet
EndChar

StartChar: uniE062
Encoding: 57442 57442 397
Width: 928
VWidth: 0
GlyphClass: 2
Flags: HW
LayerCount: 2
Fore
SplineSet
856 0 m 257
 784 -282 525 -430 157 -528 c 257
 74 -292 l 257
 344 -225 524 -111 582 0 c 257
 488 0 l 258
 296 0 87 95 87 352 c 256
 87 563 226 824 470 824 c 256
 795 824 856 436 870 250 c 257
 928 250 l 257
 928 0 l 257
 856 0 l 257
619 250 m 257
 599 450 547 576 470 576 c 256
 405 576 337 488 337 354 c 256
 337 280 368 250 488 250 c 258
 619 250 l 257
EndSplineSet
EndChar

StartChar: uniE063
Encoding: 57443 57443 398
Width: 1033
VWidth: 0
GlyphClass: 2
Flags: HW
LayerCount: 2
Fore
SplineSet
669 518 m 257
 585 420 496 340 410 270 c 257
 410 256 l 257
 443 246 479 241 515 241 c 256
 661 241 737 268 737 306 c 256
 737 338 714 422 669 518 c 257
653 890 m 257
 714 1024 740 1142 740 1314 c 257
 990 1314 l 257
 990 1042 927 885 813 693 c 257
 893 557 953 424 953 301 c 256
 953 32 668 -2 535 -2 c 256
 375 -2 230 50 120 121 c 257
 120 331 l 257
 256 430 390 535 514 696 c 257
 378 889 206 1014 43 1123 c 257
 186 1328 l 257
 358 1211 516 1070 653 890 c 257
EndSplineSet
EndChar

StartChar: uniE064
Encoding: 57444 57444 399
Width: 1372
VWidth: 0
GlyphClass: 2
Flags: HW
LayerCount: 2
Fore
SplineSet
524 460 m 257
 274 443 l 257
 274 721 219 955 101 1230 c 257
 331 1328 l 257
 465 1019 524 751 524 460 c 257
1372 0 m 257
 1371 0 l 257
 1190 0 1041 55 955 186 c 257
 783 34 513 0 100 0 c 257
 100 250 l 257
 756 250 863 324 863 564 c 258
 863 1314 l 257
 1113 1314 l 257
 1113 567 l 258
 1113 430 1137 348 1166 312 c 256
 1192 279 1243 250 1371 250 c 257
 1372 250 l 257
 1372 0 l 257
EndSplineSet
EndChar

StartChar: uniE065
Encoding: 57445 57445 400
Width: 1873
VWidth: 0
GlyphClass: 2
Flags: HW
LayerCount: 2
Fore
SplineSet
1733 650 m 257
 1702 538 1681 447 1681 384 c 256
 1681 286 1728 250 1872 250 c 258
 1873 250 l 257
 1873 0 l 257
 1872 0 l 257
 1676 0 1535 68 1471 202 c 257
 1289 40 1069 0 754 0 c 256
 316 0 52 172 52 500 c 256
 52 598 76 713 123 831 c 257
 356 744 l 257
 325 653 306 569 306 505 c 256
 306 326 444 250 794 250 c 256
 1306 250 1410 380 1491 712 c 257
 1733 650 l 257
EndSplineSet
EndChar

StartChar: uniE066
Encoding: 57446 57446 401
Width: 921
VWidth: 0
GlyphClass: 2
Flags: HW
LayerCount: 2
Fore
SplineSet
624 412 m 257
 569 400 513 394 456 394 c 256
 252 394 80 485 80 729 c 256
 80 940 219 1201 463 1201 c 256
 845 1201 868 682 868 524 c 256
 868 104 618 0 0 0 c 256
 -69 0 -125 56 -125 125 c 256
 -125 193 -70 250 0 250 c 256
 493 250 590 283 624 412 c 257
612 641 m 257
 590 835 538 951 463 951 c 256
 398 951 330 863 330 729 c 256
 330 655 361 625 481 625 c 256
 530 625 571 630 612 641 c 257
EndSplineSet
EndChar

StartChar: uniE067
Encoding: 57447 57447 402
Width: 1876
VWidth: 0
GlyphClass: 2
Flags: HW
LayerCount: 2
Fore
SplineSet
1416 66 m 257
 1264 18 1086 0 891 0 c 256
 515 0 54 46 54 463 c 256
 54 606 93 716 130 816 c 257
 367 738 l 257
 334 642 310 559 310 488 c 256
 310 310 475 250 891 250 c 256
 978 250 1060 255 1132 264 c 257
 1072 338 1037 429 1037 537 c 256
 1037 779 1203 938 1422 938 c 256
 1637 938 1807 780 1807 537 c 256
 1807 428 1771 335 1709 261 c 257
 1763 253 1816 250 1875 250 c 257
 1876 250 l 257
 1876 0 l 257
 1875 0 l 257
 1713 0 1550 21 1416 66 c 257
1420 332 m 257
 1511 376 1557 433 1557 537 c 256
 1557 626 1510 688 1422 688 c 256
 1332 688 1287 627 1287 537 c 256
 1287 436 1335 377 1420 332 c 257
EndSplineSet
EndChar

StartChar: uniE068
Encoding: 57448 57448 403
Width: 908
VWidth: 0
GlyphClass: 2
Flags: HW
LayerCount: 2
Fore
SplineSet
0 250 m 256
 58 250 116 254 167 261 c 257
 105 336 69 427 69 537 c 256
 69 779 235 938 454 938 c 256
 669 938 839 780 839 537 c 256
 839 427 803 335 741 261 c 257
 793 253 848 250 907 250 c 257
 908 250 l 257
 908 0 l 257
 907 0 l 257
 747 0 587 18 454 62 c 257
 320 17 161 0 0 0 c 256
 -69 0 -125 56 -125 125 c 256
 -125 194 -69 250 0 250 c 256
454 330 m 257
 542 376 589 435 589 537 c 256
 589 626 542 688 454 688 c 256
 364 688 319 627 319 537 c 256
 319 435 367 375 454 330 c 257
EndSplineSet
EndChar

StartChar: uniE069
Encoding: 57449 57449 404
Width: 1415
VWidth: 0
GlyphClass: 2
Flags: HW
LayerCount: 2
Fore
SplineSet
1099 0 m 257
 975 0 l 258
 783 0 574 95 574 352 c 256
 574 563 713 824 957 824 c 256
 1274 824 1344 462 1358 250 c 257
 1415 250 l 257
 1415 0 l 257
 1348 0 l 257
 1288 -334 1021 -505 684 -505 c 256
 356 -505 53 -330 53 55 c 256
 53 239 123 425 220 602 c 257
 438 484 l 257
 352 329 303 168 303 55 c 256
 303 -133 419 -255 684 -255 c 256
 918 -255 1058 -159 1099 0 c 257
1106 250 m 257
 1087 447 1033 576 957 576 c 256
 892 576 824 488 824 354 c 256
 824 280 855 250 975 250 c 258
 1106 250 l 257
EndSplineSet
EndChar

StartChar: uniFD3E
Encoding: 64830 64830 433
Width: 598
VWidth: 0
GlyphClass: 2
Flags: HW
LayerCount: 2
Fore
SplineSet
523 84 m 257
 313 -51 l 257
 166 179 75 435 75 754 c 256
 75 1073 166 1328 313 1558 c 257
 523 1423 l 257
 400 1231 325 1030 325 754 c 256
 325 478 400 276 523 84 c 257
EndSplineSet
EndChar

StartChar: uniFD3F
Encoding: 64831 64831 434
Width: 598
VWidth: 0
GlyphClass: 2
Flags: HW
LayerCount: 2
Fore
SplineSet
75 1423 m 257
 285 1558 l 257
 432 1328 523 1072 523 753 c 256
 523 434 432 179 285 -51 c 257
 75 84 l 257
 198 276 273 477 273 753 c 256
 273 1029 198 1231 75 1423 c 257
EndSplineSet
EndChar

StartChar: v
Encoding: 118 118 532
Width: 1134
VWidth: 0
GlyphClass: 2
Flags: HW
LayerCount: 2
Fore
SplineSet
861 1139 m 257
 1127 1139 l 257
 686 0 l 257
 450 0 l 257
 8 1139 l 257
 274 1139 l 257
 568 343 l 257
 861 1139 l 257
EndSplineSet
EndChar

StartChar: w
Encoding: 119 119 533
Width: 1598
VWidth: 0
GlyphClass: 2
Flags: HW
LayerCount: 2
Fore
SplineSet
1298 1139 m 257
 1558 1139 l 257
 1229 0 l 257
 989 0 l 257
 800 770 l 257
 610 0 l 257
 370 0 l 257
 40 1139 l 257
 300 1139 l 257
 490 378 l 257
 675 1139 l 257
 923 1139 l 257
 1110 378 l 257
 1298 1139 l 257
EndSplineSet
EndChar

StartChar: x
Encoding: 120 120 534
Width: 1287
VWidth: 0
GlyphClass: 2
Flags: HW
LayerCount: 2
Fore
SplineSet
956 1139 m 257
 1268 1139 l 257
 800 554 l 257
 1243 0 l 257
 930 0 l 257
 644 410 l 257
 356 0 l 257
 43 0 l 257
 488 554 l 257
 20 1139 l 257
 332 1139 l 257
 644 699 l 257
 956 1139 l 257
EndSplineSet
EndChar

StartChar: y
Encoding: 121 121 535
Width: 1133
VWidth: 0
GlyphClass: 2
Flags: HW
LayerCount: 2
Fore
SplineSet
860 1139 m 257
 1126 1139 l 257
 713 75 l 258
 631 -137 520 -410 184 -410 c 258
 92 -410 l 257
 92 -182 l 257
 184 -182 l 258
 306 -182 369 -116 443 58 c 257
 436 58 l 257
 8 1139 l 257
 274 1139 l 257
 570 360 l 257
 860 1139 l 257
EndSplineSet
EndChar

StartChar: z
Encoding: 122 122 539
Width: 1051
VWidth: 0
GlyphClass: 2
Flags: HW
LayerCount: 2
Fore
SplineSet
78 926 m 257
 78 1139 l 257
 974 1139 l 257
 974 954 l 257
 365 212 l 257
 974 212 l 257
 974 0 l 257
 78 0 l 257
 78 185 l 257
 685 926 l 257
 78 926 l 257
EndSplineSet
EndChar

StartChar: zero
Encoding: 48 48 540
Width: 1281
VWidth: 0
GlyphClass: 2
Flags: HW
LayerCount: 2
Fore
SplineSet
641 -26 m 256
 175 -26 106 480 106 754 c 256
 106 1028 175 1533 641 1533 c 256
 1107 1533 1175 1028 1175 754 c 256
 1175 480 1107 -26 641 -26 c 256
641 186 m 256
 838 186 925 452 925 754 c 256
 925 1056 838 1320 641 1320 c 256
 444 1320 356 1055 356 754 c 256
 356 453 444 186 641 186 c 256
EndSplineSet
EndChar
